<?xml version="1.0" encoding="utf-8"?>
<!-- Generator: Adobe Illustrator 16.0.0, SVG Export Plug-In . SVG Version: 6.00 Build 0)  -->
<!DOCTYPE svg PUBLIC "-//W3C//DTD SVG 1.1//EN" "http://www.w3.org/Graphics/SVG/1.1/DTD/svg11.dtd">
<svg version="1.1" id="Calque_1" xmlns="http://www.w3.org/2000/svg" xmlns:xlink="http://www.w3.org/1999/xlink" x="0px" y="0px"
     width="32px" height="32px" viewBox="0 0 32 32" enable-background="new 0 0 32 32" xml:space="preserve">
<g>
	<path fill="#F69F25" stroke="#6C270D" stroke-width="0.5" d="M15.026,9.632c-0.192,0.278-0.46,0.542-0.779,0.669
		c-0.41,0.164-0.869-0.334-1.047-0.272c-0.442,0.152-0.361-1.116-0.354-1.256c0.065-1.317,0.424-2.596,0.492-3.917
		c0.071-1.382,0.066-3.565-1.375-4.31C10.97,0.033,9.346,0.417,8.478,1.018C7.735,1.529,7.43,2.352,7.546,3.235
		c0.116,0.876,0.927,1.393,1.472,2.05c1.061,1.279,1.652,3.043,1.605,4.72c-0.019,0.678-0.23,1.49-0.877,1.838
		c-0.831,0.445-1.55-0.628-2.132-1.045c-1.969-1.406-3.095,1.532-1.63,2.831c0.767,0.68,3.877,1.72,1.987,3.184
		c-0.678,0.523-1.479,0.959-2.241,1.338c-0.918,0.457-1.921,0.492-2.819,0.881c-0.583,0.252-0.563,0.916-0.361,1.422
		c0.32,0.796,1.114,0.975,1.889,0.756c1.658-0.47,2.721-2.087,4.311-2.707c0.909-0.354,2.893,0.091,1.702,1.387
		c-0.895,0.979-2.163,1.998-2.853,3.137c-0.436,0.723,0.228,1.442,0.999,1.063c0.688-0.34,1.313-1.233,1.835-1.772
		c0.424-0.438,0.646-0.834,1.268-0.883c0.734-0.058,0.667,1.295,0.7,1.786c0.075,1.08,0.156,2.523-0.348,3.521
		c-0.272,0.54-0.496,1.112-0.662,1.696c-0.198,0.688-0.401,1.588-0.027,2.256c0.341,0.609,0.91,0.467,1.458,0.664
		c1.068,0.388,1.737-0.562,1.969-1.491c0.581-2.332-0.307-4.693,0.038-7.046c0.186-1.274,1.87-2.996,2.813-1.244
		c0.914,1.695,0.791,3.636,0.795,5.49c0.004,2.14,2.494,1.063,3.559,0.436c1.482-0.904,0.587-2.225-0.492-3.186
		c-1.07-0.959-2.471-2.045-2.929-3.446c-0.601-1.828,1.815-1.488,2.825-0.897c0.527,0.305,1.192,1.656,2.024,1.113
		c0.396-0.253,0.8-1.104,0.604-1.545c-0.305-0.682-1.387-0.813-1.971-1.252c-0.699-0.533-0.3-0.527,0.297-0.543
		c2.178-0.057,4.226,0.377,6,1.658c1.354,0.978,2.795,0.75,3.078-1.084c0.271-1.75-0.971-2.402-2.666-2.3
		c-1.533,0.02-3.063,0.053-4.598-0.01c-1.348-0.055-3.911-0.193-4.357-1.909c-0.414-1.596,4.064-1.77,2.26-3.81
		c-0.42-0.475-0.93-1.047-1.604-1.096c-1.173-0.085-1.296,1.385-2.124,1.889c-1.037,0.629-1.566,0.157-1.712-0.957
		C16.483,9.007,15.815,8.663,15.026,9.632"/>
	<path fill="#F69F25" stroke="#6C270D" stroke-width="0.5" d="M23.605,7.955c-0.514-1.057,0.088-1.976,1.17-2.281
		c1.092-0.308,1.223-0.047,1.752-1.045c0.381-0.716,0.943-0.816,1.455-0.151c0.338,0.439,0.728,1.158,0.354,1.685
		c-0.47,0.661-1.393,0.269-1.857,0.841c-0.305,0.374-0.34,0.982-0.66,1.39C25.09,9.317,24.186,8.721,23.605,7.955"/>
	<path fill="#F69F25" stroke="#6C270D" stroke-width="0.5" d="M31.328,26.279c-0.6-1.243-1.467-2.465-2.592-3.282
		c-1.213-0.88-4.28-1.31-4.742,0.696c-0.337,1.459,2.994,3.267,4.038,3.826c0.774,0.418,1.942,1.017,2.834,0.611
		C31.799,27.813,31.891,27.081,31.328,26.279"/>
	<path fill="#F69F25" stroke="#6C270D" stroke-width="0.5" d="M17.43,6.74c1.098-0.398,2.317-1.185,2.649-2.37
		c0.407-1.45-0.617-2.855-1.903-3.409C14.71-0.529,14.8,7.538,17.43,6.74"/>
	<path fill="#F69F25" stroke="#6C270D" stroke-width="0.5" d="M2.94,9.652C2.631,8.536,1.543,6.275,0.498,8.24
		C-0.439,10.001,2.815,10.652,2.94,9.652"/>
	<path fill="#F69F25" stroke="#6C270D" stroke-width="0.5" d="M3.956,30.031c0.829-0.023,1.807-0.121,2.509-0.594
		c1.01-0.681,0.196-2.049-0.723-2.332C4.858,26.832,2.84,26.188,2.2,27.21C1.462,28.385,2.774,29.989,3.956,30.031"/>
</g>
<g>
	<path fill="#FFFFFF" stroke="#000000" stroke-miterlimit="10" d="M12.172,28.115"/>
	<path fill="#C7A193" stroke="#A3A2A2" stroke-width="0.75" stroke-miterlimit="10" d="M23.047,25.472
		C20.711,28.268,5.291,29.49,4.75,27.808c0.215-2.878,2.621-7.97,5.325-9.781c1.561,0.344,4.497,0.455,6.466-0.216
		C16.476,17.922,20.536,21.411,23.047,25.472z"/>
	<path fill="#DC9A5F" stroke="#897D78" stroke-miterlimit="10" d="M14.241,18.42c-0.041,0.976-0.403,1.258-0.502,1.452
		c0.973,0.748,0.793,0.819,2.157,2.197c-0.208,0.49-1.095,3.62-1.721,3.47c-1.385-2.479-2.167-2.716-2.593-3.836
		c-0.021-1.681,0.961-1.746,0.828-1.854c-0.135-0.107-0.76-0.408-0.828-1.43"/>
	<path fill="#FEEAD5" stroke="#A3A2A2" stroke-width="0.75" stroke-miterlimit="10" d="M16.54,17.811
		c-1.969,0.671-4.905,0.561-6.466,0.216c-0.676-0.477-2.523-1.653-2.464-3.948c0.238-1.684,0.873-3.775,4.344-3.933
		C20.077,10.954,19.377,16.611,16.54,17.811z"/>
	<path fill="none" stroke="#897D78" stroke-width="0.5" stroke-miterlimit="10" d="M12.483,19.728
		c0.387,0.408,1.28,0.021,1.28,0.021"/>
	<g>
		<g>
			<path fill="#A29C95" d="M10.522,16.088c0.109,0.323,0.158,0.491,0.47,0.641c0.363,0.176,0.804,0.163,1.199,0.164
				c0.82,0.001,1.63-0.241,2.325-0.666c0.169-0.104,0.115-0.233-0.066-0.249c-0.24-0.019-0.492,0.063-0.695,0.187
				c-0.404,0.247-0.868,0.301-1.337,0.288c-0.555-0.015-0.75-0.145-0.915-0.628C11.415,15.563,10.442,15.853,10.522,16.088
				L10.522,16.088z"/>
		</g>
	</g>
	<g>
		<g>
			<path fill="#A29C95" d="M10.782,13.002c-0.023,0.201-0.006,0.395,0.038,0.591c0.132,0.582,1.535,0.217,1.403-0.376
				c-0.028-0.127-0.043-0.222-0.028-0.351C12.267,12.208,10.843,12.438,10.782,13.002L10.782,13.002z"/>
		</g>
	</g>
	<g>
		<g>
			<path d="M13.385,13.323c0.268,0,1.588-0.529,0.922-0.529C14.039,12.795,12.719,13.323,13.385,13.323L13.385,13.323z"/>
		</g>
	</g>
	<g>
		<g>
			<path fill="#A29C95" d="M13.29,13.441c0.008,0.014,0.015,0.028,0.023,0.041c0.245,0.503,1.616,0.061,1.402-0.375
				c-0.082-0.168-0.159-0.258-0.314-0.363C14.004,12.476,12.712,13.052,13.29,13.441L13.29,13.441z"/>
		</g>
	</g>
</g>
<path fill="#FFFFFF" stroke="#000000" stroke-miterlimit="10" d="M8.185,31.108"/>
<g>
	<path fill="#944837" stroke="#000000" stroke-width="0.75" stroke-miterlimit="10" d="M19.188,28.26
		c-2.4,2.871-18.235,4.127-18.791,2.398c0.221-2.955,2.691-8.185,5.468-10.044c1.604,0.353,4.617,0.466,6.64-0.222
		C12.439,20.506,16.609,24.09,19.188,28.26z"/>
	<path fill="#F39200" stroke="#000000" stroke-miterlimit="10" d="M10.144,21.019c-0.042,1.001-0.413,1.292-0.516,1.49
		c1,0.77,0.815,0.842,2.215,2.259c-0.214,0.503-1.124,3.717-1.767,3.562c-1.423-2.546-2.227-2.789-2.663-3.938
		c-0.022-1.727,0.987-1.794,0.85-1.903c-0.138-0.11-0.781-0.421-0.85-1.469"/>
	<path fill="#FCD2A0" stroke="#000000" stroke-width="0.75" stroke-miterlimit="10" d="M12.505,20.393
		c-2.023,0.688-5.037,0.574-6.64,0.221c-0.695-0.49-2.59-1.699-2.53-4.056c0.245-1.729,0.897-3.876,4.462-4.038
		C16.137,13.351,15.418,19.16,12.505,20.393z"/>
	<path fill="none" stroke="#000000" stroke-width="0.5" stroke-miterlimit="10" d="M8.337,22.361
		c0.398,0.42,1.316,0.021,1.316,0.021"/>
	<g>
		<g>
			<path d="M6.338,18.618c0.114,0.332,0.163,0.501,0.483,0.658c0.371,0.179,0.823,0.165,1.224,0.166
				c0.836,0.002,1.665-0.244,2.373-0.679c0.169-0.104,0.116-0.234-0.066-0.248c-0.241-0.021-0.491,0.061-0.694,0.186
				c-0.421,0.258-0.904,0.314-1.393,0.302c-0.571-0.016-0.775-0.151-0.945-0.647C7.23,18.095,6.258,18.385,6.338,18.618
				L6.338,18.618z"/>
		</g>
	</g>
	<g>
		<g>
			<path d="M6.609,15.452c-0.022,0.206-0.005,0.401,0.04,0.604c0.132,0.581,1.538,0.217,1.402-0.376
				c-0.03-0.131-0.044-0.231-0.03-0.365C8.095,14.657,6.671,14.888,6.609,15.452L6.609,15.452z"/>
		</g>
	</g>
	<g>
		<g>
			<path d="M9.277,15.776c0.268,0,1.588-0.53,0.921-0.53C9.931,15.248,8.611,15.776,9.277,15.776L9.277,15.776z"/>
		</g>
	</g>
	<g>
		<g>
			<path d="M9.183,15.895c0.01,0.015,0.019,0.031,0.027,0.046c0.246,0.503,1.616,0.061,1.403-0.375
				c-0.083-0.17-0.162-0.261-0.319-0.369C9.897,14.927,8.605,15.501,9.183,15.895L9.183,15.895z"/>
		</g>
	</g>
</g>
<path fill="none" stroke="#000000" stroke-width="0.5" stroke-miterlimit="10" d="M15.931,20.832"/>
</svg>
