<?xml version="1.0" encoding="utf-8"?>
<!-- Generator: Adobe Illustrator 16.0.0, SVG Export Plug-In . SVG Version: 6.00 Build 0)  -->
<!DOCTYPE svg PUBLIC "-//W3C//DTD SVG 1.1//EN" "http://www.w3.org/Graphics/SVG/1.1/DTD/svg11.dtd">
<svg version="1.1" id="Calque_1" xmlns="http://www.w3.org/2000/svg" xmlns:xlink="http://www.w3.org/1999/xlink" x="0px" y="0px"
     width="32px" height="32px" viewBox="0 0 32 32" enable-background="new 0 0 32 32" xml:space="preserve">
<g>
	<path fill="#FFFFFF" stroke="#000000" stroke-miterlimit="10" d="M8.446,20.391"/>
	<path fill="#FACEAF" stroke="#7E7F7F" stroke-width="0.5" stroke-miterlimit="10" d="M20.393,17.484
		C17.828,20.557,0.892,21.9,0.295,20.049c0.235-3.158,2.879-8.754,5.848-10.743c1.715,0.377,4.939,0.5,7.104-0.236
		C13.174,9.192,17.633,13.024,20.393,17.484z"/>
	<path fill="#86A3D1" stroke="#6F5F5C" stroke-width="0.5" stroke-miterlimit="10" d="M10.719,9.742
		c-0.045,1.071-0.441,1.383-0.553,1.596c1.069,0.82,0.873,0.897,2.371,2.414c-0.23,0.537-1.203,3.976-1.892,3.81
		c-1.522-2.722-2.381-2.979-2.849-4.21c-0.024-1.848,1.056-1.918,0.908-2.037c-0.146-0.117-0.834-0.448-0.908-1.57"/>
	<path fill="#FDE8D0" stroke="#7E7F7F" stroke-width="0.5" stroke-miterlimit="10" d="M13.244,9.072
		c-2.162,0.735-5.388,0.613-7.103,0.236C5.399,8.784,3.371,7.492,3.435,4.971c0.265-1.848,0.961-4.146,4.774-4.318
		C17.129,1.541,16.357,7.754,13.244,9.072z"/>
	<path fill="none" stroke="#6F5F5C" stroke-width="0.5" stroke-miterlimit="10" d="M8.787,11.281
		c0.426,0.448,1.406,0.023,1.406,0.023"/>
	<g>
		<g>
			<path fill="#817568" d="M6.689,7.164c0.122,0.354,0.173,0.533,0.516,0.7C7.594,8.053,8.069,8.039,8.49,8.039
				c0.879,0,1.745-0.256,2.488-0.712c0.167-0.102,0.113-0.229-0.064-0.245c-0.236-0.02-0.483,0.062-0.684,0.184
				C9.76,7.553,9.226,7.619,8.681,7.604C8.064,7.588,7.84,7.44,7.656,6.904C7.567,6.648,6.611,6.935,6.689,7.164L6.689,7.164z"/>
		</g>
	</g>
	<g>
		<g>
			<path fill="#817568" d="M6.965,3.785C6.946,4.008,6.961,4.207,7.008,4.427c0.13,0.601,1.582,0.227,1.449-0.389
				C8.416,3.91,8.405,3.778,8.424,3.644C8.48,2.958,7.014,3.204,6.965,3.785L6.965,3.785z"/>
		</g>
	</g>
	<g>
		<g>
			<path fill="#817568" d="M9.711,4.249c0.012,0.019,0.022,0.038,0.035,0.057c0.252,0.52,1.668,0.063,1.448-0.388
				c-0.088-0.18-0.171-0.276-0.336-0.389C10.449,3.25,9.115,3.841,9.711,4.249L9.711,4.249z"/>
		</g>
	</g>
	<path fill="none" stroke="#000000" stroke-width="0.5" stroke-miterlimit="10" d="M16.73,9.398"/>
	<path fill="none" stroke="#000000" stroke-width="0.5" stroke-miterlimit="10" d="M13.131,14.233"/>
</g>
<g>
	<path fill="#F69F25" stroke="#6C270D" stroke-width="0.5" d="M18.162,13.741c-0.155,0.226-0.374,0.44-0.633,0.542
		c-0.333,0.133-0.705-0.271-0.85-0.221c-0.359,0.124-0.293-0.905-0.287-1.019c0.053-1.069,0.344-2.107,0.399-3.179
		c0.058-1.122,0.054-2.894-1.116-3.499C14.87,5.95,13.552,6.261,12.848,6.75c-0.604,0.415-0.851,1.083-0.757,1.799
		c0.094,0.711,0.752,1.131,1.195,1.664c0.861,1.038,1.34,2.47,1.302,3.831c-0.016,0.551-0.187,1.209-0.712,1.492
		c-0.674,0.361-1.258-0.51-1.73-0.848c-1.598-1.141-2.512,1.244-1.323,2.298c0.623,0.552,3.147,1.396,1.613,2.584
		c-0.55,0.425-1.201,0.777-1.819,1.086c-0.746,0.37-1.56,0.399-2.288,0.715c-0.474,0.205-0.457,0.743-0.293,1.154
		c0.26,0.646,0.905,0.792,1.534,0.614c1.346-0.382,2.208-1.694,3.499-2.198c0.738-0.287,2.348,0.074,1.382,1.127
		c-0.727,0.795-1.756,1.622-2.316,2.546c-0.354,0.587,0.186,1.171,0.812,0.862c0.558-0.275,1.065-1,1.489-1.438
		c0.344-0.355,0.524-0.678,1.029-0.717c0.596-0.048,0.542,1.051,0.568,1.45c0.061,0.876,0.126,2.047-0.282,2.858
		c-0.222,0.438-0.403,0.902-0.538,1.376c-0.161,0.559-0.326,1.289-0.022,1.832c0.277,0.494,0.739,0.378,1.184,0.538
		c0.867,0.315,1.41-0.457,1.598-1.21c0.471-1.894-0.249-3.81,0.031-5.719c0.15-1.035,1.517-2.433,2.283-1.01
		c0.741,1.375,0.642,2.951,0.646,4.456c0.003,1.736,2.023,0.862,2.889,0.353c1.202-0.732,0.476-1.805-0.4-2.585
		c-0.868-0.778-2.005-1.659-2.377-2.797c-0.487-1.483,1.474-1.209,2.293-0.729c0.429,0.248,0.967,1.345,1.643,0.903
		c0.322-0.205,0.649-0.896,0.49-1.254c-0.248-0.554-1.126-0.659-1.601-1.017c-0.567-0.433-0.242-0.428,0.241-0.439
		c1.769-0.047,3.431,0.305,4.87,1.345c1.1,0.794,2.269,0.608,2.498-0.88c0.221-1.42-0.788-1.95-2.163-1.867
		c-1.245,0.017-2.486,0.044-3.731-0.008c-1.095-0.044-3.175-0.156-3.537-1.549c-0.337-1.296,3.299-1.437,1.834-3.093
		c-0.341-0.386-0.755-0.85-1.302-0.889c-0.952-0.069-1.052,1.124-1.724,1.533c-0.841,0.51-1.271,0.127-1.39-0.777
		C19.345,13.233,18.803,12.954,18.162,13.741"/>
	<path fill="#F69F25" stroke="#6C270D" stroke-width="0.5" d="M25.125,12.38c-0.417-0.858,0.072-1.604,0.95-1.852
		c0.886-0.25,0.993-0.038,1.422-0.848c0.31-0.581,0.766-0.663,1.181-0.123c0.274,0.356,0.591,0.939,0.288,1.368
		c-0.382,0.536-1.131,0.218-1.509,0.682c-0.246,0.304-0.275,0.797-0.535,1.128C26.331,13.485,25.597,13.002,25.125,12.38"/>
	<path fill="#F69F25" stroke="#6C270D" stroke-width="0.5" d="M31.394,27.253c-0.486-1.009-1.19-2.001-2.104-2.664
		c-0.984-0.715-3.474-1.063-3.849,0.565c-0.273,1.184,2.43,2.651,3.277,3.105c0.629,0.339,1.576,0.825,2.301,0.495
		C31.775,28.497,31.851,27.903,31.394,27.253"/>
	<path fill="#F69F25" stroke="#6C270D" stroke-width="0.5" d="M20.113,11.394c0.891-0.324,1.881-0.962,2.15-1.924
		c0.33-1.177-0.501-2.317-1.545-2.768C17.905,5.494,17.979,12.042,20.113,11.394"/>
	<path fill="#F69F25" stroke="#6C270D" stroke-width="0.5" d="M8.352,13.757c-0.25-0.906-1.133-2.741-1.981-1.146
		C5.61,14.041,8.251,14.569,8.352,13.757"/>
	<path fill="#F69F25" stroke="#6C270D" stroke-width="0.5" d="M9.177,30.299c0.673-0.02,1.467-0.099,2.037-0.482
		c0.82-0.554,0.159-1.663-0.587-1.893c-0.717-0.223-2.355-0.745-2.875,0.085C7.153,28.961,8.218,30.264,9.177,30.299"/>
</g>
<g>
	<polyline fill="#20CE20" stroke="#025429" stroke-width="0.75" stroke-miterlimit="10" points="18.47,17.755 25.548,17.792 
		25.548,14.045 30.865,18.909 25.548,23.68 25.548,20.188 18.47,20.188 	"/>
	<polyline fill="#ED0606" stroke="#A81916" stroke-width="0.75" stroke-miterlimit="10" points="18.47,20.188 11.446,20.188 
		11.446,23.68 6.244,18.909 11.446,13.94 11.331,17.716 18.47,17.755 	"/>
</g>
</svg>
