<?xml version="1.0" encoding="utf-8"?>
<!-- Generator: Adobe Illustrator 15.0.0, SVG Export Plug-In . SVG Version: 6.00 Build 0)  -->
<!DOCTYPE svg PUBLIC "-//W3C//DTD SVG 1.1//EN" "http://www.w3.org/Graphics/SVG/1.1/DTD/svg11.dtd">
<svg version="1.1" id="Calque_1" xmlns="http://www.w3.org/2000/svg" xmlns:xlink="http://www.w3.org/1999/xlink" x="0px" y="0px"
     width="32px" height="32px" viewBox="0 0 32 32" enable-background="new 0 0 32 32" xml:space="preserve">
<path fill="#FFFFFF" stroke="#000000" stroke-miterlimit="10" d="M8.401,42.856"/>
<path fill="#944837" stroke="#000000" stroke-width="0.75" stroke-miterlimit="10" d="M16.646,30.802
	c-1.319-1.342-2.222-2.174-2.186-2.236c-2.731,0.93-6.802,0.775-8.968,0.3c-0.736,0.493-1.456,1.161-2.14,1.947
	C3.116,32.517,16.646,30.802,16.646,30.802z"/>
<line fill="none" stroke="#F39200" stroke-width="0.25" stroke-miterlimit="10" x1="8.5" y1="31.016" x2="10.453" y2="30.906"/>
<g>
	<g>
		<path fill="#F39200" d="M7.169,29.912c0.152,0.153,0.27,0.331,0.422,0.484c0.113,0.114,0.346,0.179,0.484,0.266
			c0.375,0.233,0.859,0.331,1.299,0.288c0.519-0.052,2.217-0.339,1.935-1.216c-0.098-0.305-0.55-0.335-0.804-0.354
			c-0.534-0.042-1.188,0.053-1.661,0.313c-0.397,0.22-0.609,0.458-0.841,0.839c-0.229,0.377,0.273,0.397,0.479,0.489
			c0.116-0.159,0.232-0.318,0.348-0.477c-0.021,0.01-0.042,0.021-0.063,0.031c-0.113,0.057-0.455,0.215-0.405,0.401
			c0.051,0.189,0.424,0.149,0.552,0.146c0.188-0.006,0.376-0.034,0.561-0.071c0.128-0.027,0.255-0.057,0.383-0.087
			c0.319-0.076-0.056,0.013-0.102-0.003c-0.055-0.073-0.109-0.146-0.163-0.219c-0.01,0.031-0.021,0.063-0.031,0.094
			c-0.135,0.406,1.74,0.175,1.908-0.33c0.01-0.031,0.021-0.063,0.031-0.094c0.045-0.136-0.052-0.18-0.163-0.219
			c-0.285-0.099-0.607-0.065-0.9-0.023c-0.168,0.024-0.333,0.061-0.499,0.1c-0.015,0.004-0.371,0.05-0.196,0.044
			c0.049,0.183,0.098,0.365,0.147,0.547c0.021-0.01,0.042-0.021,0.063-0.031c0.057-0.028,0.624-0.353,0.348-0.477
			c-0.102-0.046-0.197-0.086-0.306-0.111c-0.152-0.035-0.102-0.008-0.02-0.143c0.29-0.478,0.116,0.126-0.714,0.094
			c0.096,0.004,0.116,0.053,0.143,0.138c0.108,0.336,1.256-0.106,0.747-0.221c-0.141-0.031-0.256-0.116-0.376-0.19
			c-0.115-0.072-0.245-0.126-0.365-0.191c-0.166-0.091-0.289-0.35-0.422-0.484C8.624,28.878,6.846,29.586,7.169,29.912L7.169,29.912
			z"/>
	</g>
</g>
<path fill="#F39200" stroke="#000000" stroke-miterlimit="10" d="M8.097,31.413c-0.243-0.419-0.47-1.048-0.515-2"/>
<path fill="#D9E9F1" stroke="#B01A2F" stroke-width="0.75" stroke-miterlimit="10" d="M16.815,13.816
	c0.028-0.082,0.595,0.91,0.5,1.357c-0.156,0.732-0.821,0.524-1.147,1.146c-0.305,0.58,0.079,1.131-0.353,1.692
	c-0.388,0.505-1.273,0.774-1.06,1.569c0.489-0.527,1.24-0.544,1.846-0.817c0.802-0.362,0.637-1.035,1.16-1.52
	c0.426-0.393,1.3,0.058,1.839-0.227c0.585-0.308,0.606-1.092,0.924-1.502c1.005-1.296,2.721-0.562,3.663,0.214
	c1.089,0.896,2.767,0.815,4.07,0.377c0.82-0.276,1.272-0.762,1.574-1.578c0.235-0.637,0.426-0.88,0.782-1.405
	c0.898-1.32,0.162-3.111-0.946-3.943c-0.531-0.398-1.132-0.606-1.785-0.841c-0.243-0.087-0.714-0.162-0.861-0.374
	c-0.132-0.189,0.079-0.56-0.081-0.785c-0.394-0.551-1.424-0.248-1.919-0.571c-0.781-0.512,0.007-1.031,0.239-1.63
	c0.272-0.701,0.019-1.101-0.18-1.712c-0.049-0.152-0.042-0.691-0.117-0.808c-0.143-0.224-0.933-0.438-1.173-0.564
	c-1.302-0.682-2.801-0.692-4.124,0c-1.335,0.698-2.387,1.5-3.512,2.46c-1.151,0.982-2.35,1.804-3.517,2.748
	C11.402,8.1,12.054,9.975,12.976,11c0.435,0.483,1.125,0.697,1.66,1.052c0.586,0.389,1.561,1.287,2.108,1.622
	C16.844,13.734,16.787,13.897,16.815,13.816z"/>
<path fill="#F39200" stroke="#000000" stroke-miterlimit="10" d="M11.271,29.413c-0.028,0.854-0.162,1.41-0.309,1.797"/>
<path fill="#FCD2A0" stroke="#000000" stroke-width="0.75" stroke-miterlimit="10" d="M14.459,28.565
	c-2.731,0.93-6.802,0.775-8.968,0.3c-0.938-0.663-3.498-2.295-3.417-5.478c0.331-2.335,1.211-5.235,6.026-5.453
	C19.364,19.056,18.394,26.901,14.459,28.565z"/>
<g>
	<g>
		<path d="M6.479,22.255c-0.013,0.178-0.016,0.294,0.054,0.459c0.331,0.783,2.241,0.215,1.932-0.518
			c-0.013-0.043-0.026-0.086-0.04-0.129C8.494,21.15,6.537,21.48,6.479,22.255L6.479,22.255z"/>
	</g>
</g>
<g>
	<g>
		<path d="M10.088,22.339c0.368,0,2.188-0.729,1.269-0.729C10.988,21.61,9.169,22.339,10.088,22.339L10.088,22.339z"/>
	</g>
</g>
<g>
	<g>
		<path d="M9.957,22.501c0.011,0.02,0.022,0.04,0.033,0.06c0.338,0.693,2.225,0.083,1.932-0.518
			c-0.113-0.232-0.22-0.356-0.435-0.503C10.942,21.168,9.163,21.959,9.957,22.501L9.957,22.501z"/>
	</g>
</g>
<g>
	<g>
		<path d="M6.716,26.631c1.472,0.779,3.658,0.786,4.944-0.369c0.565-0.508-0.778-0.425-1.068-0.164
			c-0.749,0.673-1.986,0.346-2.789-0.08C7.452,25.832,6.2,26.357,6.716,26.631L6.716,26.631z"/>
	</g>
</g>
<g>
	<path d="M17.438,5.211c0.671-0.108,1.547-0.18,2.458-0.18c1.548,0,2.555,0.288,3.322,0.864c0.84,0.624,1.367,1.619,1.367,3.046
		c0,1.547-0.563,2.615-1.331,3.274c-0.852,0.708-2.159,1.043-3.742,1.043c-0.947,0-1.631-0.06-2.074-0.12V5.211z M19.26,11.795
		c0.156,0.036,0.42,0.036,0.636,0.036c1.667,0.012,2.759-0.899,2.759-2.831c0-1.679-0.983-2.566-2.566-2.566
		c-0.396,0-0.672,0.036-0.828,0.072V11.795z"/>
</g>
</svg>
