<?xml version="1.0" encoding="utf-8"?>
<!-- Generator: Adobe Illustrator 16.0.0, SVG Export Plug-In . SVG Version: 6.00 Build 0)  -->
<!DOCTYPE svg PUBLIC "-//W3C//DTD SVG 1.1//EN" "http://www.w3.org/Graphics/SVG/1.1/DTD/svg11.dtd">
<svg version="1.1" id="Calque_1" xmlns="http://www.w3.org/2000/svg" xmlns:xlink="http://www.w3.org/1999/xlink" x="0px" y="0px"
     width="32px" height="32px" viewBox="0 0 32 32" enable-background="new 0 0 32 32" xml:space="preserve">
<g>
	<path fill="#FFFFFF" stroke="#000000" stroke-miterlimit="10" d="M16.336,25.834"/>
	<path fill="#C9A39B" stroke="#7F7F7F" stroke-width="0.75" stroke-miterlimit="10" d="M31.386,22.176
		c-3.232,3.869-24.571,5.563-25.322,3.232c0.299-3.982,3.627-11.03,7.369-13.536c2.161,0.475,6.224,0.63,8.947-0.298
		C22.292,11.727,27.911,16.556,31.386,22.176z"/>
	<path fill="#F8C886" stroke="#7F7F7F" stroke-miterlimit="10" d="M19.198,12.418c-0.057,1.35-0.557,1.74-0.696,2.009
		c1.347,1.035,1.1,1.134,2.985,3.042c-0.289,0.678-1.516,5.008-2.382,4.801c-1.918-3.432-3-3.758-3.588-5.309
		c-0.03-2.326,1.33-2.417,1.144-2.564c-0.185-0.148-1.051-0.566-1.144-1.979"/>
	<path fill="#FCCD9B" stroke="#7F7F7F" stroke-width="0.75" stroke-miterlimit="10" d="M22.081,3.994
		c1.029-4.358,8.385-2.784,6.668,1.029c-2.182,3.208-3.76,2.179-5.213,5.195C16.147,7.876,22.081,3.994,22.081,3.994z"/>
	<path fill="none" stroke="#F0898C" stroke-miterlimit="10" d="M21.593,3.84c1.195-5.057,9.727-3.23,7.736,1.193
		c-2.533,3.722-4.361,2.529-6.049,6.027C14.708,8.346,21.593,3.84,21.593,3.84z"/>
	<g>
		<g>
			<path fill="#F0898C" d="M22.433,10.579c-0.146,0.354-0.307,0.603-0.262,1.001c0.047,0.403,0.414,0.842,0.689,1.11
				c0.225,0.218,0.547,0.228,0.824,0.094c0.184-0.088,0.51-0.413,0.285-0.631c-0.23-0.226-0.42-0.474-0.551-0.771
				c-0.102-0.239,0.088-0.446,0.176-0.661C23.864,10.075,22.642,10.075,22.433,10.579L22.433,10.579z"/>
		</g>
	</g>
	<path fill="#FCCD9B" stroke="#7F7F7F" stroke-width="0.75" stroke-miterlimit="10" d="M12.452,2.99
		c-1.451-2.741-7.305-2.298-5.978,1.602c1.329,3.9,4.573,3.603,5.063,6.061C17.641,9.51,12.452,2.99,12.452,2.99z"/>
	<path fill="none" stroke="#F0898C" stroke-miterlimit="10" d="M12.772,2.698c-1.676-3.17-8.445-2.658-6.91,1.85
		s5.286,4.166,5.853,7.009C18.771,10.234,12.772,2.698,12.772,2.698z"/>
	<g>
		<g>
			<path fill="#7F7F7F" d="M9.2,1.98c-1.053,0.6-2.494,1.935-1.42,3.149c0.911,1.03,2.643,0.024,3.332-0.736
				c0.299-0.331-0.285-0.431-0.506-0.32C10.095,4.33,8.7,5.627,9.581,6.18c0.464,0.291,1.036,0.091,1.488-0.098
				c0.443-0.185,0.974-0.446,1.002,0.27c0.018,0.481-0.302,0.988-0.853,0.935c-0.371-0.036-0.837,0.496-0.291,0.549
				c1.132,0.11,2.137-0.747,1.923-1.935c-0.076-0.415-0.57-0.743-0.984-0.674c-0.327,0.055-0.588,0.151-0.891,0.297
				c-0.371,0.181-0.988,0.256-0.695-0.328c0.127-0.253,0.416-0.559,0.672-0.688c-0.169-0.106-0.338-0.213-0.507-0.321
				C9.843,4.851,8.194,5.519,8.204,4.013c0.005-0.675,0.82-1.301,1.342-1.598C10.025,2.141,9.587,1.759,9.2,1.98L9.2,1.98z"/>
		</g>
	</g>
	<g>
		<g>
			<path d="M19.08,4.384c-0.815,0.464-1.942,1.502-1.108,2.447c0.725,0.82,2.109,0.046,2.666-0.566
				c0.298-0.331-0.288-0.431-0.508-0.321c-0.42,0.21-1.517,1.233-0.801,1.683c0.383,0.241,0.858,0.082,1.234-0.075
				c0.291-0.122,0.58-0.318,0.599,0.156c0.013,0.287-0.15,0.65-0.495,0.617c-0.369-0.036-0.838,0.497-0.289,0.55
				c0.899,0.087,1.746-0.582,1.572-1.54c-0.064-0.349-0.486-0.602-0.826-0.545c-0.262,0.043-0.477,0.119-0.719,0.236
				c-0.749,0.364-0.298-0.461,0.072-0.647c-0.17-0.107-0.339-0.213-0.508-0.32c-0.403,0.446-1.488,0.92-1.481-0.112
				c0.003-0.473,0.575-0.919,0.94-1.126C19.905,4.544,19.468,4.163,19.08,4.384L19.08,4.384z"/>
		</g>
	</g>
	<g>
		<g>
			<path fill="#7F7F7F" d="M25.437,2.271c0.629,0.345,1.15,0.786,1.582,1.36c0.525,0.697,0.541,2.232-1.262,1.731
				c-0.539-0.15-1.027-0.551-1.398-0.948c-0.229,0.13-0.459,0.263-0.688,0.394c0.457,0.221,0.771,0.592,1.053,1.005
				c0.697,1.032-1.014,0.214-1.332,0.104c-0.621-0.216-1.217-0.158-1.682,0.338c-1.162,1.236,0.693,2.681,1.867,2.57
				c0.436-0.041,0.637-0.601,0.084-0.549c-0.619,0.058-1.014-0.214-1.275-0.752c-0.25-0.513-0.236-1.44,0.721-1.007
				c0.701,0.317,1.295,0.622,2.059,0.348c1.359-0.488-0.156-2.158-0.863-2.5c-0.199-0.097-0.973,0.088-0.688,0.394
				c1.023,1.09,2.605,1.733,3.934,0.803c1.682-1.179-0.387-3.131-1.48-3.734C25.78,1.669,25.058,2.062,25.437,2.271L25.437,2.271z"
				/>
		</g>
	</g>
	<g>
		<g>
			<path fill="#F0898C" d="M11.35,11.516c0.18,0.57,0.343,1.608-0.372,1.905c-0.08,0.034-0.543,0.236-0.351,0.389
				c0.19,0.15,0.595,0.036,0.787-0.044c0.505-0.209,0.94-0.486,1.181-0.992c0.229-0.484,0.12-1.097-0.033-1.583
				C12.46,10.863,11.253,11.208,11.35,11.516L11.35,11.516z"/>
		</g>
	</g>
	<path fill="#FCD2A0" stroke="#7F7F7F" stroke-width="0.75" stroke-miterlimit="10" d="M22.325,11.577
		c-2.713,0.923-6.758,0.77-8.909,0.297c-0.931-0.657-3.474-2.279-3.394-5.441c0.33-2.319,1.203-5.2,5.986-5.417
		C27.196,2.131,26.233,9.925,22.325,11.577z"/>
	<path fill="none" stroke="#7F7F7F" stroke-width="0.5" stroke-miterlimit="10" d="M16.765,14.228
		c0.537,0.566,1.771,0.029,1.771,0.029"/>
	<path fill="none" stroke="#000000" stroke-width="0.5" stroke-miterlimit="10" d="M26.774,11.985"/>
	<g>
		<g>
			<path fill="#7F7F7F" d="M15.64,10.039c1.357,0.72,3.361,0.815,4.561-0.262c0.571-0.513-0.318-0.947-0.76-0.551
				c-0.852,0.765-2.223,0.517-3.155,0.023C15.802,8.991,14.997,9.698,15.64,10.039L15.64,10.039z"/>
		</g>
	</g>
	<ellipse fill="#7F7F7F" stroke="#F0898C" stroke-miterlimit="10" cx="14.726" cy="5.526" rx="2.604" ry="2.666"/>
	
		<ellipse fill="#FFFFFF" stroke="#7F7F7F" stroke-width="0.25" stroke-miterlimit="10" cx="14.722" cy="5.525" rx="1.857" ry="1.874"/>
	<path fill="none" stroke="#7F7F7F" stroke-miterlimit="10" d="M14.915,5.818c-0.031-0.12-0.18-0.218-0.166-0.351
		c0.016-0.138,0.121-0.148,0.241-0.077c0.212,0.127,0.241,0.506-0.077,0.413c-0.212-0.063-0.641-0.521-0.18-0.515
		c0.338,0.004,0.478,0.482,0.031,0.329c-0.115-0.04-0.404-0.16-0.379-0.324c0.022-0.16,0.274-0.123,0.373-0.064
		c0.1,0.057,0.258,0.324,0.16,0.438c-0.109,0.128-0.543-0.023-0.605-0.137c-0.145-0.264,0.521-0.326,0.621-0.029
		c0.148,0.441-0.467,0.279-0.467-0.064c0-0.345,0.439-0.176,0.541,0.03c0.211,0.421-0.289,0.164-0.407-0.029"/>
	<ellipse fill="#7F7F7F" stroke="#F0898C" stroke-miterlimit="10" cx="20.376" cy="5.636" rx="2.604" ry="2.666"/>
	
		<ellipse fill="#FFFFFF" stroke="#7F7F7F" stroke-width="0.25" stroke-miterlimit="10" cx="20.37" cy="5.633" rx="1.857" ry="1.874"/>
	<path fill="none" stroke="#7F7F7F" stroke-miterlimit="10" d="M20.565,5.927c-0.033-0.118-0.182-0.218-0.167-0.351
		C20.415,5.439,20.52,5.428,20.64,5.5c0.213,0.126,0.24,0.507-0.078,0.413c-0.212-0.062-0.64-0.521-0.18-0.515
		c0.338,0.004,0.479,0.482,0.031,0.329c-0.115-0.039-0.404-0.161-0.379-0.324c0.023-0.16,0.273-0.122,0.374-0.065
		c0.098,0.057,0.257,0.326,0.159,0.438c-0.108,0.127-0.543-0.023-0.605-0.138c-0.145-0.263,0.52-0.325,0.621-0.028
		c0.148,0.441-0.467,0.279-0.467-0.064c0-0.345,0.438-0.176,0.541,0.03c0.211,0.421-0.289,0.164-0.409-0.029"/>
</g>
<g>
	<path fill="#FFFFFF" stroke="#000000" stroke-miterlimit="10" d="M11.257,30.82"/>
	<path fill="#944837" stroke="#000000" stroke-width="0.75" stroke-miterlimit="10" d="M26.307,27.162
		c-3.232,3.869-24.571,5.563-25.322,3.232c0.299-3.982,3.627-11.031,7.369-13.537c2.161,0.475,6.224,0.631,8.947-0.297
		C17.213,16.713,22.832,21.541,26.307,27.162z"/>
	<path fill="#F39200" stroke="#000000" stroke-miterlimit="10" d="M14.12,17.404c-0.057,1.35-0.557,1.74-0.696,2.008
		c1.347,1.035,1.1,1.135,2.985,3.043c-0.289,0.678-1.516,5.008-2.382,4.801c-1.918-3.432-3-3.758-3.588-5.309
		c-0.03-2.326,1.33-2.418,1.144-2.564c-0.185-0.148-1.051-0.566-1.144-1.98"/>
	<path fill="#FCCD9B" stroke="#000000" stroke-width="0.75" stroke-miterlimit="10" d="M17.002,8.979
		c1.029-4.358,8.385-2.784,6.668,1.029c-2.182,3.208-3.76,2.179-5.213,5.195C11.069,12.862,17.002,8.979,17.002,8.979z"/>
	<path fill="none" stroke="#E31419" stroke-miterlimit="10" d="M16.514,8.826c1.195-5.057,9.727-3.23,7.736,1.193
		c-2.533,3.722-4.361,2.529-6.049,6.027C9.629,13.332,16.514,8.826,16.514,8.826z"/>
	<g>
		<g>
			<path fill="#E31419" d="M17.354,15.564c-0.146,0.355-0.307,0.604-0.262,1.002c0.047,0.402,0.414,0.842,0.689,1.109
				c0.225,0.219,0.547,0.229,0.824,0.094c0.184-0.088,0.51-0.412,0.285-0.631c-0.23-0.225-0.42-0.473-0.551-0.771
				c-0.102-0.238,0.088-0.445,0.176-0.66C18.785,15.061,17.563,15.061,17.354,15.564L17.354,15.564z"/>
		</g>
	</g>
	<path fill="#FCCD9B" stroke="#000000" stroke-width="0.75" stroke-miterlimit="10" d="M7.374,7.976
		C5.922,5.234,0.069,5.677,1.396,9.577c1.329,3.9,4.573,3.603,5.063,6.062C12.562,14.496,7.374,7.976,7.374,7.976z"/>
	<path fill="none" stroke="#E31419" stroke-miterlimit="10" d="M7.694,7.684c-1.676-3.17-8.445-2.658-6.91,1.85
		s5.286,4.166,5.853,7.009C13.692,15.22,7.694,7.684,7.694,7.684z"/>
	<g>
		<g>
			<path d="M4.122,6.966c-1.053,0.6-2.494,1.935-1.42,3.149c0.911,1.03,2.643,0.024,3.332-0.736c0.299-0.331-0.285-0.431-0.506-0.32
				c-0.512,0.257-1.906,1.554-1.025,2.106c0.464,0.291,1.036,0.091,1.488-0.098c0.443-0.185,0.974-0.446,1.002,0.27
				c0.018,0.481-0.302,0.988-0.853,0.935c-0.371-0.036-0.837,0.496-0.291,0.549c1.132,0.11,2.137-0.747,1.923-1.935
				c-0.076-0.415-0.57-0.743-0.984-0.674C6.46,10.266,6.2,10.363,5.897,10.508c-0.371,0.181-0.988,0.256-0.695-0.328
				c0.127-0.253,0.416-0.559,0.672-0.688C5.705,9.386,5.536,9.279,5.367,9.171c-0.603,0.665-2.251,1.333-2.241-0.173
				c0.005-0.675,0.82-1.301,1.342-1.598C4.947,7.127,4.508,6.745,4.122,6.966L4.122,6.966z"/>
		</g>
	</g>
	<g>
		<g>
			<path d="M14.001,9.37c-0.815,0.464-1.942,1.502-1.108,2.447c0.725,0.82,2.109,0.046,2.666-0.566
				c0.298-0.331-0.288-0.431-0.508-0.321c-0.42,0.21-1.517,1.233-0.801,1.683c0.383,0.241,0.858,0.082,1.234-0.075
				c0.291-0.122,0.58-0.318,0.599,0.156c0.013,0.287-0.15,0.65-0.495,0.617c-0.369-0.036-0.838,0.497-0.289,0.55
				c0.899,0.087,1.746-0.582,1.572-1.54c-0.064-0.349-0.486-0.602-0.826-0.545c-0.262,0.043-0.477,0.119-0.719,0.236
				c-0.749,0.364-0.298-0.461,0.072-0.647c-0.17-0.107-0.339-0.213-0.508-0.32c-0.403,0.446-1.488,0.92-1.481-0.112
				c0.003-0.473,0.575-0.919,0.94-1.126C14.827,9.53,14.389,9.149,14.001,9.37L14.001,9.37z"/>
		</g>
	</g>
	<g>
		<g>
			<path d="M20.357,7.257c0.629,0.345,1.15,0.786,1.582,1.36c0.525,0.697,0.541,2.232-1.262,1.731
				c-0.539-0.15-1.027-0.551-1.398-0.948c-0.229,0.13-0.459,0.263-0.688,0.394c0.457,0.221,0.771,0.592,1.053,1.005
				c0.697,1.032-1.014,0.214-1.332,0.104c-0.621-0.216-1.217-0.158-1.682,0.338c-1.162,1.236,0.693,2.681,1.867,2.57
				c0.436-0.041,0.637-0.601,0.084-0.549c-0.619,0.058-1.014-0.214-1.275-0.752c-0.25-0.513-0.236-1.44,0.721-1.007
				c0.701,0.317,1.295,0.622,2.059,0.348c1.359-0.488-0.156-2.158-0.863-2.5c-0.199-0.097-0.973,0.088-0.688,0.394
				c1.023,1.09,2.605,1.733,3.934,0.803c1.682-1.179-0.387-3.131-1.48-3.734C20.701,6.655,19.979,7.047,20.357,7.257L20.357,7.257z"
				/>
		</g>
	</g>
	<g>
		<g>
			<path fill="#E31419" d="M6.271,16.502c0.18,0.57,0.343,1.607-0.372,1.904c-0.08,0.035-0.543,0.236-0.351,0.389
				c0.19,0.15,0.595,0.037,0.787-0.043c0.505-0.209,0.94-0.486,1.181-0.992c0.229-0.484,0.12-1.098-0.033-1.584
				C7.381,15.85,6.174,16.194,6.271,16.502L6.271,16.502z"/>
		</g>
	</g>
	<path fill="#FCD2A0" stroke="#000000" stroke-width="0.75" stroke-miterlimit="10" d="M17.246,16.563
		c-2.712,0.924-6.757,0.77-8.909,0.297c-0.931-0.656-3.474-2.279-3.394-5.44c0.33-2.319,1.203-5.2,5.986-5.417
		C22.117,7.117,21.154,14.911,17.246,16.563z"/>
	<path fill="none" stroke="#000000" stroke-width="0.5" stroke-miterlimit="10" d="M11.686,19.213
		c0.537,0.566,1.771,0.029,1.771,0.029"/>
	<path fill="none" stroke="#000000" stroke-width="0.5" stroke-miterlimit="10" d="M21.695,16.971"/>
	<g>
		<g>
			<path d="M10.561,15.024c1.357,0.72,3.361,0.815,4.561-0.262c0.571-0.513-0.318-0.947-0.76-0.551
				c-0.852,0.765-2.223,0.517-3.155,0.023C10.723,13.977,9.918,14.684,10.561,15.024L10.561,15.024z"/>
		</g>
	</g>
	<ellipse stroke="#E3101C" stroke-miterlimit="10" cx="9.647" cy="10.512" rx="2.604" ry="2.666"/>
	
		<ellipse fill="#FFFFFF" stroke="#000000" stroke-width="0.25" stroke-miterlimit="10" cx="9.643" cy="10.51" rx="1.857" ry="1.874"/>
	<path fill="none" stroke="#000000" stroke-miterlimit="10" d="M9.836,10.804c-0.031-0.12-0.18-0.218-0.166-0.351
		c0.016-0.138,0.121-0.148,0.241-0.077c0.212,0.127,0.241,0.506-0.077,0.413c-0.212-0.063-0.641-0.521-0.18-0.515
		c0.338,0.004,0.478,0.482,0.031,0.329c-0.115-0.04-0.404-0.16-0.379-0.324c0.022-0.16,0.274-0.123,0.373-0.064
		c0.1,0.057,0.258,0.324,0.16,0.438c-0.109,0.128-0.543-0.023-0.605-0.137c-0.145-0.264,0.521-0.326,0.621-0.029
		c0.148,0.441-0.467,0.279-0.467-0.064c0-0.345,0.439-0.176,0.541,0.03c0.211,0.421-0.289,0.164-0.407-0.029"/>
	<ellipse stroke="#E3101C" stroke-miterlimit="10" cx="15.297" cy="10.622" rx="2.603" ry="2.666"/>
	
		<ellipse fill="#FFFFFF" stroke="#000000" stroke-width="0.25" stroke-miterlimit="10" cx="15.292" cy="10.619" rx="1.857" ry="1.874"/>
	<path fill="none" stroke="#000000" stroke-miterlimit="10" d="M15.487,10.913c-0.033-0.118-0.182-0.218-0.167-0.351
		c0.017-0.137,0.121-0.148,0.241-0.077c0.213,0.126,0.24,0.507-0.078,0.413c-0.212-0.062-0.64-0.521-0.18-0.515
		c0.338,0.004,0.479,0.482,0.031,0.329c-0.115-0.039-0.404-0.161-0.379-0.324c0.023-0.16,0.273-0.122,0.374-0.065
		c0.098,0.057,0.257,0.326,0.159,0.438c-0.108,0.127-0.543-0.023-0.605-0.138c-0.145-0.263,0.52-0.325,0.621-0.028
		c0.148,0.441-0.467,0.279-0.467-0.064c0-0.345,0.438-0.176,0.541,0.03c0.211,0.421-0.289,0.164-0.409-0.029"/>
</g>
</svg>
