<?xml version="1.0" encoding="utf-8"?>
<!-- Generator: Adobe Illustrator 16.0.0, SVG Export Plug-In . SVG Version: 6.00 Build 0)  -->
<!DOCTYPE svg PUBLIC "-//W3C//DTD SVG 1.1//EN" "http://www.w3.org/Graphics/SVG/1.1/DTD/svg11.dtd">
<svg version="1.1" id="Calque_1" xmlns="http://www.w3.org/2000/svg" xmlns:xlink="http://www.w3.org/1999/xlink" x="0px" y="0px"
     width="32px" height="32px" viewBox="0 0 32 32" enable-background="new 0 0 32 32" xml:space="preserve">
<g>
	<path fill="#FFFFFF" stroke="#000000" stroke-miterlimit="10" d="M16.599,25.237"/>
	<path fill="#C9A39B" stroke="#7F7F7F" stroke-width="0.75" stroke-miterlimit="10" d="M31.419,21.634
		c-3.184,3.811-24.197,5.479-24.937,3.184c0.294-3.922,3.571-10.862,7.257-13.33c2.128,0.467,6.129,0.619,8.811-0.294
		C22.463,11.344,27.997,16.1,31.419,21.634z"/>
	<path fill="#F8C886" stroke="#7F7F7F" stroke-miterlimit="10" d="M19.417,12.025c-0.055,1.329-0.549,1.714-0.686,1.978
		c1.326,1.021,1.082,1.117,2.939,2.996c-0.285,0.668-1.492,4.933-2.346,4.728c-1.889-3.379-2.955-3.699-3.533-5.226
		c-0.03-2.291,1.311-2.381,1.127-2.526c-0.183-0.146-1.035-0.558-1.127-1.949"/>
	<path fill="#FDE8CF" stroke="#7F7F7F" stroke-width="0.75" stroke-miterlimit="10" d="M22.55,11.194
		c-2.684,0.913-6.684,0.761-8.811,0.294c-0.922-0.651-3.438-2.254-3.358-5.383c0.325-2.295,1.19-5.145,5.923-5.359
		C27.37,1.849,26.417,9.559,22.55,11.194z"/>
	<path fill="none" stroke="#7F7F7F" stroke-width="0.5" stroke-miterlimit="10" d="M17.021,13.806
		c0.528,0.559,1.745,0.029,1.745,0.029"/>
	<g>
		<g>
			<path fill="#7F7F7F" d="M14.46,8.815c0.15,0.44,0.21,0.659,0.636,0.865c0.476,0.23,1.06,0.211,1.575,0.213
				c1.072,0.002,2.129-0.309,3.037-0.865c0.19-0.118,0.129-0.265-0.076-0.282c-0.272-0.022-0.559,0.07-0.788,0.211
				c-0.601,0.368-1.285,0.454-1.981,0.436c-0.771-0.021-1.057-0.204-1.287-0.876C15.474,8.219,14.37,8.549,14.46,8.815L14.46,8.815z
				"/>
		</g>
	</g>
	<g>
		<g>
			<path fill="#7F7F7F" d="M14.862,4.625c-0.033,0.265-0.008,0.52,0.053,0.778c0.154,0.661,1.75,0.245,1.592-0.427
				c-0.041-0.176-0.063-0.327-0.041-0.507C16.56,3.727,14.942,3.983,14.862,4.625L14.862,4.625z"/>
		</g>
	</g>
	<g>
		<g>
			<path d="M18.356,5.018c0.303,0,1.803-0.601,1.045-0.601C19.098,4.417,17.599,5.018,18.356,5.018L18.356,5.018z"/>
		</g>
	</g>
	<g>
		<g>
			<path fill="#7F7F7F" d="M18.248,5.159c0.028,0.024,0.051,0.056,0.063,0.093c0.26,0.577,1.824,0.086,1.594-0.427
				c-0.096-0.211-0.199-0.334-0.396-0.458C19.049,4.075,17.583,4.737,18.248,5.159L18.248,5.159z"/>
		</g>
	</g>
	<path fill="none" stroke="#000000" stroke-width="0.5" stroke-miterlimit="10" d="M26.878,11.598"/>
	<path fill="#F3A6A0" stroke="#DE8D8C" stroke-width="0.75" stroke-miterlimit="10" d="M21.892,15.644
		c0.397,4.154,7.512,5.833,9.086,0c0-1.54,0-1.54,0-1.54l-1.133-0.255l-0.133-3.815l-1.28,2.297l-1.016-3.622l-1.193,3.359
		l-1.454-1.283l-0.491,4.771L21.892,15.644z"/>
	<path fill="#FDE5CD" stroke="#F7C4B5" stroke-width="0.5" stroke-miterlimit="10" d="M23.039,16.155
		c0.299,2.538,5.658,3.561,6.845,0c0-0.942,0-0.942,0-0.942l-0.852-0.156l-0.102-2.329l-0.965,1.402l-0.765-2.212l-0.9,2.051
		l-1.093-0.784l-0.371,2.915L23.039,16.155z"/>
</g>
<g>
	<path fill="#FFFFFF" stroke="#000000" stroke-miterlimit="10" d="M11.108,30.758"/>
	<path fill="#944837" stroke="#000000" stroke-width="0.75" stroke-miterlimit="10" d="M25.929,27.154
		c-3.184,3.811-24.198,5.478-24.937,3.183c0.293-3.921,3.572-10.861,7.256-13.329c2.128,0.467,6.129,0.619,8.811-0.294
		C16.973,16.864,22.507,21.62,25.929,27.154z"/>
	<path fill="#F39200" stroke="#000000" stroke-miterlimit="10" d="M13.927,17.545c-0.055,1.329-0.548,1.714-0.685,1.978
		c1.326,1.021,1.082,1.117,2.939,2.996c-0.285,0.668-1.493,4.933-2.346,4.728c-1.889-3.379-2.955-3.7-3.533-5.227
		c-0.03-2.291,1.31-2.381,1.127-2.526c-0.183-0.146-1.035-0.558-1.127-1.949"/>
	<path fill="#FCD2A0" stroke="#000000" stroke-width="0.75" stroke-miterlimit="10" d="M17.06,16.714
		c-2.684,0.913-6.684,0.761-8.811,0.294c-0.921-0.651-3.438-2.254-3.358-5.383c0.325-2.295,1.19-5.145,5.922-5.359
		C21.88,7.369,20.927,15.079,17.06,16.714z"/>
	<path fill="none" stroke="#000000" stroke-width="0.5" stroke-miterlimit="10" d="M11.53,19.326
		c0.528,0.559,1.745,0.029,1.745,0.029"/>
	<g>
		<g>
			<path d="M8.97,14.335c0.151,0.44,0.21,0.659,0.636,0.865c0.476,0.23,1.06,0.211,1.575,0.213c1.072,0.002,2.128-0.309,3.037-0.865
				c0.19-0.118,0.129-0.265-0.077-0.282c-0.272-0.022-0.558,0.07-0.788,0.211c-0.601,0.368-1.285,0.454-1.981,0.436
				c-0.772-0.021-1.057-0.204-1.288-0.876C9.983,13.739,8.879,14.069,8.97,14.335L8.97,14.335z"/>
		</g>
	</g>
	<g>
		<g>
			<path d="M9.372,10.145c-0.034,0.265-0.008,0.52,0.052,0.778c0.155,0.661,1.75,0.245,1.592-0.427
				c-0.041-0.176-0.063-0.327-0.041-0.507C11.07,9.247,9.453,9.503,9.372,10.145L9.372,10.145z"/>
		</g>
	</g>
	<g>
		<g>
			<path d="M12.866,10.538c0.303,0,1.803-0.601,1.046-0.601C13.607,9.937,12.108,10.538,12.866,10.538L12.866,10.538z"/>
		</g>
	</g>
	<g>
		<g>
			<path d="M12.758,10.679c0.028,0.024,0.051,0.056,0.064,0.093c0.259,0.577,1.823,0.086,1.593-0.427
				c-0.095-0.211-0.199-0.334-0.396-0.458C13.559,9.595,12.093,10.257,12.758,10.679L12.758,10.679z"/>
		</g>
	</g>
	<path fill="none" stroke="#000000" stroke-width="0.5" stroke-miterlimit="10" d="M21.388,17.118"/>
	<path fill="#E94E41" stroke="#BF1B1A" stroke-width="0.75" stroke-miterlimit="10" d="M16.401,21.164
		c0.397,4.154,7.512,5.833,9.086,0c0-1.54,0-1.54,0-1.54l-1.133-0.255l-0.133-3.815l-1.28,2.297l-1.016-3.622l-1.193,3.359
		l-1.454-1.283l-0.491,4.771L16.401,21.164z"/>
	<path fill="#FCCD9B" stroke="#F18A6C" stroke-width="0.5" stroke-miterlimit="10" d="M17.549,21.675
		c0.299,2.537,5.658,3.562,6.845,0c0-0.942,0-0.942,0-0.942l-0.852-0.156l-0.102-2.329l-0.965,1.402l-0.765-2.212l-0.9,2.051
		l-1.093-0.784l-0.371,2.915L17.549,21.675z"/>
</g>
</svg>
