<?xml version="1.0" encoding="utf-8"?>
<!-- Generator: Adobe Illustrator 16.0.0, SVG Export Plug-In . SVG Version: 6.00 Build 0)  -->
<!DOCTYPE svg PUBLIC "-//W3C//DTD SVG 1.1//EN" "http://www.w3.org/Graphics/SVG/1.1/DTD/svg11.dtd">
<svg version="1.1" id="Calque_1" xmlns="http://www.w3.org/2000/svg" xmlns:xlink="http://www.w3.org/1999/xlink" x="0px" y="0px"
     width="32px" height="32px" viewBox="0 0 32 32" enable-background="new 0 0 32 32" xml:space="preserve">
<g>
	<path fill="#C9A39B" stroke="#7F7F7F" stroke-width="0.75" stroke-miterlimit="10" d="M18.667,30.725
		c-1.199-1.219-2.021-1.975-1.987-2.031c-2.48,0.846-6.181,0.705-8.15,0.272c-0.669,0.448-1.323,1.056-1.944,1.769
		C6.371,32.284,18.667,30.725,18.667,30.725z"/>
	<line fill="none" stroke="#F39200" stroke-width="0.25" stroke-miterlimit="10" x1="11.263" y1="30.92" x2="13.039" y2="30.82"/>
	<g>
		<g>
			<path fill="#F8C886" d="M10.054,29.917c0.139,0.138,0.245,0.301,0.383,0.438c0.103,0.104,0.314,0.164,0.44,0.242
				c0.341,0.211,0.781,0.301,1.18,0.262c0.472-0.047,2.015-0.309,1.759-1.104c-0.09-0.276-0.5-0.305-0.731-0.321
				c-0.484-0.039-1.079,0.049-1.509,0.284c-0.362,0.2-0.554,0.415-0.765,0.763c-0.208,0.343,0.249,0.361,0.435,0.444
				c0.106-0.146,0.211-0.289,0.317-0.434c-0.019,0.01-0.038,0.019-0.058,0.028c-0.103,0.051-0.414,0.194-0.368,0.363
				c0.046,0.172,0.385,0.135,0.501,0.133c0.171-0.006,0.342-0.031,0.51-0.064c0.116-0.024,0.231-0.051,0.348-0.079
				c0.289-0.067-0.052,0.012-0.093-0.002c-0.05-0.065-0.099-0.134-0.148-0.199c-0.009,0.028-0.02,0.058-0.028,0.085
				c-0.123,0.369,1.582,0.159,1.734-0.3c0.009-0.028,0.02-0.058,0.028-0.085c0.041-0.124-0.047-0.163-0.148-0.199
				c-0.258-0.09-0.551-0.061-0.817-0.021c-0.152,0.021-0.303,0.056-0.454,0.091c-0.013,0.004-0.337,0.046-0.178,0.041
				c0.044,0.166,0.089,0.332,0.133,0.497c0.02-0.01,0.039-0.021,0.058-0.028c0.051-0.026,0.567-0.321,0.316-0.435
				c-0.092-0.041-0.178-0.077-0.278-0.101c-0.138-0.032-0.092-0.008-0.018-0.13c0.263-0.436,0.104,0.113-0.65,0.085
				c0.087,0.004,0.106,0.048,0.13,0.125c0.099,0.306,1.142-0.097,0.68-0.201c-0.129-0.026-0.232-0.104-0.343-0.172
				c-0.104-0.065-0.222-0.114-0.331-0.174c-0.151-0.082-0.263-0.317-0.384-0.438C11.376,28.977,9.761,29.62,10.054,29.917
				L10.054,29.917z"/>
		</g>
	</g>
	<path fill="#F39200" stroke="#7F7F7F" stroke-miterlimit="10" d="M10.897,31.28c-0.22-0.38-0.427-0.952-0.468-1.817"/>
	<path fill="#EBF3F7" stroke="#D78C96" stroke-width="0.75" stroke-miterlimit="10" d="M18.818,15.289
		c0.027-0.075,0.543,0.827,0.455,1.232c-0.142,0.664-0.746,0.477-1.041,1.041c-0.278,0.526,0.07,1.027-0.32,1.537
		c-0.354,0.459-1.158,0.705-0.965,1.428c0.445-0.479,1.128-0.495,1.679-0.742c0.728-0.33,0.579-0.941,1.056-1.383
		c0.387-0.356,1.18,0.053,1.67-0.207c0.531-0.278,0.551-0.991,0.84-1.364c0.914-1.177,2.474-0.51,3.33,0.194
		c0.987,0.814,2.514,0.74,3.697,0.344c0.745-0.251,1.156-0.693,1.432-1.434c0.213-0.579,0.387-0.801,0.711-1.277
		c0.816-1.2,0.146-2.828-0.86-3.583c-0.481-0.362-1.028-0.551-1.622-0.765c-0.222-0.079-0.648-0.147-0.781-0.34
		c-0.121-0.172,0.07-0.509-0.074-0.713c-0.358-0.501-1.295-0.225-1.744-0.519c-0.709-0.465,0.006-0.937,0.217-1.481
		c0.248-0.637,0.02-1-0.163-1.556c-0.044-0.138-0.038-0.628-0.106-0.734c-0.129-0.204-0.849-0.398-1.064-0.512
		c-1.184-0.62-2.547-0.629-3.748,0c-1.213,0.634-2.169,1.363-3.191,2.235c-1.047,0.893-2.137,1.64-3.196,2.498
		c-1.124,0.907-0.531,2.611,0.307,3.542c0.396,0.438,1.021,0.633,1.509,0.956c0.532,0.354,1.419,1.17,1.916,1.474
		C18.846,15.214,18.795,15.362,18.818,15.289z"/>
	<path fill="#F39200" stroke="#7F7F7F" stroke-miterlimit="10" d="M13.781,29.463c-0.025,0.776-0.147,1.281-0.28,1.633"/>
	<path fill="#FDE8CF" stroke="#7F7F7F" stroke-width="0.75" stroke-miterlimit="10" d="M16.68,28.691
		c-2.483,0.847-6.182,0.705-8.151,0.272c-0.852-0.603-3.179-2.085-3.105-4.979c0.301-2.121,1.101-4.756,5.477-4.955
		C21.137,20.051,20.256,27.18,16.68,28.691z"/>
	<g>
		<g>
			<path fill="#7F7F7F" d="M9.427,22.958c-0.013,0.162-0.015,0.267,0.049,0.417c0.301,0.712,2.037,0.195,1.755-0.473
				c-0.012-0.038-0.024-0.077-0.036-0.116C11.258,21.954,9.479,22.254,9.427,22.958L9.427,22.958z"/>
		</g>
	</g>
	<g>
		<g>
			<path d="M12.707,23.034c0.334,0,1.989-0.663,1.153-0.663C13.524,22.371,11.871,23.034,12.707,23.034L12.707,23.034z"/>
		</g>
	</g>
	<g>
		<g>
			<path fill="#7F7F7F" d="M12.587,23.182c0.01,0.02,0.021,0.036,0.03,0.055c0.307,0.63,2.022,0.076,1.755-0.471
				c-0.102-0.211-0.2-0.322-0.395-0.457C13.483,21.97,11.866,22.688,12.587,23.182L12.587,23.182z"/>
		</g>
	</g>
	<g>
		<g>
			<path fill="#7F7F7F" d="M9.642,26.936c1.338,0.707,3.324,0.715,4.493-0.336c0.514-0.461-0.707-0.387-0.971-0.148
				c-0.681,0.611-1.804,0.314-2.534-0.073C10.311,26.209,9.173,26.688,9.642,26.936L9.642,26.936z"/>
		</g>
	</g>
	<g>
		<path fill="#7F7F7F" d="M19.921,8.31c0.521-0.083,1.199-0.14,1.906-0.14c1.2,0,1.981,0.223,2.575,0.669
			c0.652,0.485,1.061,1.256,1.061,2.363c0,1.2-0.436,2.028-1.031,2.539c-0.66,0.549-1.674,0.809-2.903,0.809
			c-0.734,0-1.264-0.047-1.607-0.092V8.31z M21.333,13.416c0.121,0.028,0.326,0.028,0.494,0.028c1.292,0.009,2.14-0.698,2.14-2.195
			c0-1.303-0.762-1.991-1.991-1.991c-0.306,0-0.52,0.028-0.641,0.056v4.102H21.333z"/>
	</g>
</g>
<path fill="#FFFFFF" stroke="#000000" stroke-miterlimit="10" d="M8.401,42.855"/>
<g>
	<path fill="#944837" stroke="#000000" stroke-width="0.75" stroke-miterlimit="10" d="M13.167,30.754
		c-1.149-1.169-1.936-1.893-1.904-1.945c-2.378,0.809-5.924,0.674-7.81,0.26c-0.641,0.431-1.268,1.013-1.864,1.695
		C1.383,32.248,13.167,30.754,13.167,30.754z"/>
	<line fill="none" stroke="#F39200" stroke-width="0.25" stroke-miterlimit="10" x1="6.072" y1="30.939" x2="7.773" y2="30.845"/>
	<g>
		<g>
			<path fill="#F39200" d="M4.913,29.979c0.132,0.133,0.235,0.289,0.367,0.422c0.099,0.1,0.301,0.156,0.422,0.231
				c0.327,0.202,0.748,0.288,1.131,0.251c0.452-0.046,1.931-0.296,1.686-1.06c-0.086-0.265-0.479-0.292-0.701-0.31
				c-0.464-0.035-1.034,0.047-1.446,0.273c-0.346,0.191-0.53,0.398-0.732,0.73c-0.199,0.327,0.238,0.346,0.417,0.426
				c0.101-0.141,0.202-0.277,0.303-0.416c-0.019,0.01-0.037,0.019-0.055,0.027c-0.099,0.049-0.396,0.188-0.353,0.35
				c0.045,0.164,0.37,0.129,0.481,0.127c0.164-0.006,0.327-0.03,0.488-0.063c0.111-0.022,0.222-0.049,0.333-0.075
				c0.278-0.064-0.048,0.012-0.089-0.002c-0.048-0.063-0.095-0.129-0.142-0.19c-0.008,0.026-0.019,0.055-0.027,0.081
				c-0.117,0.354,1.516,0.152,1.662-0.287c0.008-0.027,0.018-0.055,0.027-0.081c0.039-0.119-0.045-0.156-0.142-0.19
				c-0.249-0.088-0.529-0.057-0.784-0.021c-0.146,0.021-0.291,0.053-0.435,0.087c-0.013,0.003-0.323,0.043-0.17,0.039
				c0.043,0.158,0.085,0.316,0.128,0.477c0.019-0.009,0.037-0.02,0.055-0.027c0.049-0.024,0.543-0.309,0.302-0.414
				c-0.088-0.041-0.171-0.075-0.266-0.098c-0.133-0.031-0.089-0.007-0.018-0.125c0.252-0.416,0.101,0.108-0.622,0.082
				c0.083,0.004,0.101,0.047,0.125,0.12c0.094,0.292,1.094-0.094,0.651-0.192c-0.124-0.026-0.223-0.102-0.328-0.166
				c-0.1-0.063-0.213-0.109-0.317-0.166c-0.145-0.078-0.251-0.305-0.368-0.422C6.18,29.078,4.631,29.695,4.913,29.979L4.913,29.979z
				"/>
		</g>
	</g>
	<path fill="#F39200" stroke="#000000" stroke-miterlimit="10" d="M5.721,31.286c-0.212-0.364-0.409-0.912-0.448-1.742"/>
	<path fill="#D9E9F1" stroke="#B01A2F" stroke-width="0.75" stroke-miterlimit="10" d="M13.313,15.961
		c0.024-0.071,0.519,0.793,0.435,1.182c-0.135,0.639-0.714,0.457-0.999,0.998c-0.266,0.506,0.069,0.985-0.307,1.475
		c-0.338,0.439-1.109,0.675-0.923,1.365c0.426-0.457,1.08-0.474,1.608-0.709c0.698-0.317,0.555-0.902,1.01-1.326
		c0.371-0.342,1.131,0.052,1.601-0.197c0.511-0.268,0.528-0.95,0.805-1.309c0.876-1.127,2.371-0.488,3.191,0.188
		c0.947,0.78,2.408,0.71,3.543,0.328c0.716-0.24,1.109-0.663,1.371-1.374c0.205-0.555,0.371-0.767,0.682-1.224
		c0.783-1.15,0.143-2.709-0.824-3.434c-0.461-0.347-0.984-0.528-1.554-0.733c-0.212-0.076-0.622-0.141-0.749-0.326
		c-0.116-0.165,0.066-0.488-0.072-0.684c-0.343-0.48-1.238-0.216-1.67-0.497c-0.682-0.446,0.005-0.898,0.207-1.42
		c0.236-0.61,0.018-0.958-0.156-1.491c-0.043-0.132-0.035-0.602-0.103-0.704c-0.124-0.195-0.813-0.381-1.021-0.491
		c-1.135-0.594-2.439-0.603-3.592,0c-1.163,0.607-2.079,1.306-3.059,2.142c-1.003,0.855-2.046,1.571-3.063,2.394
		c-1.076,0.869-0.508,2.502,0.295,3.395c0.379,0.42,0.979,0.607,1.446,0.916c0.51,0.339,1.359,1.121,1.836,1.413
		C13.338,15.89,13.289,16.031,13.313,15.961z"/>
	<path fill="#F39200" stroke="#000000" stroke-miterlimit="10" d="M8.485,29.544c-0.024,0.745-0.141,1.229-0.269,1.565"/>
	<path fill="#FCD2A0" stroke="#000000" stroke-width="0.75" stroke-miterlimit="10" d="M11.261,28.807
		c-2.378,0.811-5.923,0.674-7.81,0.262c-0.817-0.577-3.047-2-2.976-4.771c0.288-2.033,1.054-4.561,5.248-4.75
		C15.533,20.523,14.689,27.355,11.261,28.807z"/>
	<g>
		<g>
			<path d="M4.312,23.311C4.3,23.467,4.297,23.566,4.359,23.71c0.288,0.683,1.951,0.188,1.682-0.451
				c-0.011-0.038-0.022-0.075-0.035-0.112C6.066,22.35,4.362,22.636,4.312,23.311L4.312,23.311z"/>
		</g>
	</g>
	<g>
		<g>
			<path d="M7.455,23.384c0.321,0,1.906-0.635,1.105-0.635C8.238,22.749,6.654,23.384,7.455,23.384L7.455,23.384z"/>
		</g>
	</g>
	<g>
		<g>
			<path d="M7.341,23.523c0.009,0.019,0.019,0.037,0.028,0.054c0.295,0.604,1.938,0.073,1.683-0.451
				c-0.098-0.202-0.191-0.31-0.379-0.438C8.198,22.364,6.649,23.053,7.341,23.523L7.341,23.523z"/>
		</g>
	</g>
	<g>
		<g>
			<path d="M4.518,27.121c1.282,0.68,3.186,0.686,4.306-0.321c0.492-0.44-0.678-0.368-0.93-0.143
				c-0.652,0.587-1.729,0.301-2.429-0.069C5.159,26.426,4.069,26.884,4.518,27.121L4.518,27.121z"/>
		</g>
	</g>
</g>
<g>
	<path d="M14.243,9.207c0.521-0.083,1.2-0.14,1.907-0.14c1.2,0,1.981,0.223,2.575,0.669c0.652,0.485,1.061,1.256,1.061,2.363
		c0,1.2-0.436,2.028-1.031,2.539c-0.66,0.549-1.674,0.809-2.903,0.809c-0.734,0-1.265-0.046-1.608-0.092V9.207z M15.656,14.313
		c0.121,0.028,0.326,0.028,0.494,0.028c1.292,0.009,2.139-0.698,2.139-2.195c0-1.303-0.762-1.991-1.991-1.991
		c-0.306,0-0.521,0.028-0.641,0.056v4.102H15.656z"/>
</g>
</svg>
