<?xml version="1.0" encoding="utf-8"?>
<!-- Generator: Adobe Illustrator 16.0.0, SVG Export Plug-In . SVG Version: 6.00 Build 0)  -->
<!DOCTYPE svg PUBLIC "-//W3C//DTD SVG 1.1//EN" "http://www.w3.org/Graphics/SVG/1.1/DTD/svg11.dtd">
<svg version="1.1" id="Calque_1" xmlns="http://www.w3.org/2000/svg" xmlns:xlink="http://www.w3.org/1999/xlink" x="0px" y="0px"
	 width="32px" height="32px" viewBox="0 0 32 32" enable-background="new 0 0 32 32" xml:space="preserve">
<g>
	<path fill="#0F0F0F" d="M15.139,0.564c0.323,0,0.645,0,0.965,0c4.871,2.94,9.751,6.073,14.664,9.02
		c0.174,0.104,0.332,0.153,0.481,0.291c0.144,0.127,0.164,0.301,0.388,0.385c0.111,3.892-0.025,8.032,0.096,11.915
		c0,2.25,0,4.502,0,6.752c-1.926,1.47-4.356,2.429-7.67,2.511c-0.689,0-1.383,0-2.074,0c-0.661-0.06-1.479-1.105-2.119-1.689
		c-3.063-2.787-5.864-5.475-8.875-8.344c-0.543-0.518-1.187-1.049-1.786-1.641c-0.486-0.482-1.607-1.216-1.736-1.688
		c-0.216-0.798,0-2.815,0-3.714c0-3.597-0.101-7.299-0.144-10.854c0-0.835,0-1.671,0-2.508c0.223-0.1,0.31-0.158,0.578-0.193
		C10.143,0.511,12.854,0.854,15.139,0.564z M16.008,0.999C13.393,1.02,10.896,1.163,8.29,1.192c3.622,2.98,7.92,6.291,11.72,9.356
		c0.512,0.412,1.271,1.121,1.738,1.302c0.697,0.271,1.768,0.188,2.604,0.193c2.058,0.012,3.313-0.438,4.681-0.964
		c0.7-0.271,1.425-0.459,1.882-0.965C25.916,7.105,20.96,4.053,16.008,0.999z M7.855,1.528C7.854,1.479,7.794,1.49,7.807,1.578
		c0.092,4.547-0.029,9.697,0.145,14.325c0.027,0.738-0.139,1.619,0,2.074c0.056,0.185,0.535,0.558,0.82,0.818
		c0.895,0.826,1.759,1.58,2.556,2.365c2.356,2.316,4.421,4.203,6.752,6.367c0.995,0.924,2.07,1.842,2.99,2.75
		c0.104,0.102,0.178,0.354,0.389,0.289c0.059-6.053,0.029-12.189,0.098-18.233C17.034,8.686,12.417,5.136,7.855,1.528z
		 M31.057,10.694c-1.219,0.451-2.533,1.208-4.004,1.543c-1.468,0.334-3.244,0.193-4.968,0.096
		C22.044,18.563,21.953,24.742,21.941,31c1.927-0.045,3.822,0.072,5.644-0.385c0.646-0.164,1.245-0.525,1.931-0.869
		c0.549-0.279,1.637-0.654,1.784-1.063c0.162-0.453-0.049-1.453-0.049-2.17c0-5.354-0.03-10.756-0.048-15.822
		C31.184,10.612,31.141,10.705,31.057,10.694z"/>
	<path fill="#B4B3B3" d="M21.557,12.333c-0.065,6.044-0.039,12.181-0.098,18.233c-0.211,0.065-0.284-0.188-0.387-0.289
		c-0.92-0.908-1.997-1.824-2.992-2.75c-2.331-2.164-4.396-4.049-6.752-6.367c-0.797-0.787-1.662-1.539-2.557-2.365
		c-0.285-0.262-0.764-0.635-0.819-0.816c-0.138-0.455,0.026-1.338,0-2.074c-0.173-4.63-0.054-9.779-0.144-14.327
		C7.795,1.49,7.854,1.479,7.855,1.528C12.417,5.136,17.034,8.686,21.557,12.333z"/>
	<path fill="#CECCCC" d="M31.202,10.694c0.019,5.064,0.048,10.468,0.048,15.82c0,0.715,0.212,1.719,0.049,2.172
		c-0.146,0.406-1.234,0.781-1.785,1.062c-0.684,0.346-1.283,0.705-1.93,0.869c-1.818,0.457-3.717,0.342-5.645,0.385
		c0.014-6.256,0.103-12.438,0.145-18.665c1.725,0.098,3.5,0.24,4.969-0.098c1.471-0.336,2.785-1.091,4.004-1.542
		C31.141,10.705,31.184,10.612,31.202,10.694z M23.146,14.603c-0.08,0.839-0.08,2,0,2.845c2.455-0.425,4.81-0.947,7.232-1.4
		c-0.033-0.906,0.229-2.021,0.051-2.75c-0.002-0.029-0.009-0.057-0.051-0.049C27.945,13.677,25.543,14.136,23.146,14.603z
		 M24.208,18.893c0,0.209,0,0.42,0,0.627c1.836-0.367,3.674-0.729,5.498-1.108c-0.048-0.158,0.106-0.522-0.097-0.529
		C27.807,18.213,25.979,18.525,24.208,18.893z M28.453,21.16c0,0.498,0,0.996,0,1.494c0.49-0.119,1.016-0.205,1.543-0.289
		c0-0.449,0-0.9,0-1.352C29.43,21.01,28.991,21.135,28.453,21.16z M28.984,24.246c0,0.387,0,0.773,0,1.16
		c0.264,0.045,0.681-0.146,1.061-0.146c0-0.385,0-0.771,0-1.156C29.721,24.178,29.273,24.135,28.984,24.246z"/>
	<path d="M30.381,13.249c0.042-0.008,0.047,0.021,0.051,0.049c0.178,0.729-0.086,1.844-0.051,2.75
		c-2.425,0.453-4.779,0.976-7.234,1.4c-0.078-0.843-0.078-2.005,0-2.845C25.543,14.136,27.945,13.677,30.381,13.249z M23.243,14.747
		c0,0.853,0,1.703,0,2.554c2.339-0.443,4.616-0.945,6.993-1.349c-0.002-0.777,0.177-1.88,0-2.507
		C27.857,13.829,25.544,14.28,23.243,14.747z"/>
	<path fill="#EFEFEF" d="M30.236,13.442c0.177,0.627-0.002,1.73,0,2.507c-2.377,0.404-4.655,0.906-6.993,1.351
		c0-0.853,0-1.703,0-2.556C25.544,14.28,27.857,13.829,30.236,13.442z"/>
	<path fill="#154A89" d="M29.609,17.879c0.203,0.006,0.049,0.371,0.097,0.529c-1.824,0.379-3.662,0.744-5.498,1.111
		c0-0.209,0-0.42,0-0.629C25.979,18.525,27.807,18.213,29.609,17.879z"/>
	<path d="M29.996,21.016c0,0.449,0,0.898,0,1.353c-0.527,0.082-1.053,0.17-1.543,0.286c0-0.497,0-0.995,0-1.493
		C28.991,21.135,29.43,21.01,29.996,21.016z M28.598,21.305c0,0.387,0,0.771,0,1.156c0.387-0.094,0.838-0.125,1.205-0.238
		c-0.059-0.328,0.121-0.895-0.097-1.063C29.357,21.23,28.957,21.248,28.598,21.305z"/>
	<path fill="#35A937" d="M29.706,21.16c0.22,0.166,0.039,0.734,0.099,1.063c-0.369,0.111-0.818,0.146-1.205,0.24
		c0-0.389,0-0.771,0-1.158C28.957,21.248,29.357,21.23,29.706,21.16z"/>
	<path d="M30.045,24.102c0,0.388,0,0.771,0,1.158c-0.38,0-0.796,0.189-1.061,0.145c0-0.385,0-0.771,0-1.157
		C29.273,24.135,29.721,24.178,30.045,24.102z M29.128,24.393c0.086,0.185,0.072,0.681,0,0.867c0.229-0.063,0.501-0.076,0.724-0.145
		c0-0.273,0-0.547,0-0.82C29.586,24.303,29.326,24.318,29.128,24.393z"/>
	<path fill="#B3B4B3" d="M29.852,24.293c0,0.273,0,0.547,0,0.822c-0.224,0.066-0.494,0.082-0.724,0.145
		c0.072-0.188,0.086-0.686,0-0.869C29.326,24.318,29.586,24.303,29.852,24.293z"/>
	<path fill="#FFFFFF" d="M31.732,28.924c0,0.838,0,1.676,0,2.51c-2.559,0-5.113,0-7.67,0C27.374,31.352,29.807,30.393,31.732,28.924
		z"/>
	<path fill="#B4B3B3" d="M30.912,10.116c-0.457,0.507-1.182,0.694-1.881,0.964c-1.366,0.529-2.624,0.976-4.68,0.964
		c-0.836-0.004-1.904,0.078-2.604-0.191c-0.468-0.182-1.229-0.892-1.735-1.304C16.209,7.483,11.911,4.173,8.29,1.193
		c2.607-0.03,5.102-0.172,7.718-0.193C20.96,4.053,25.916,7.105,30.912,10.116z M18.033,2.445c-0.598-0.412-1.29-1.041-1.881-1.206
		c-1.575-0.441-3.436,0.13-5.161,0.098c-0.054,0.018-0.038,0.042,0.047,0.047c5.228,0.343,8.547,2.688,12.106,4.583
		C21.682,4.754,19.67,3.576,18.033,2.445z"/>
	<path fill="#6F7A71" d="M23.146,5.967c-3.563-1.895-6.879-4.24-12.107-4.583c-0.085-0.005-0.1-0.03-0.047-0.047
		c1.729,0.033,3.585-0.538,5.162-0.098c0.59,0.166,1.282,0.794,1.88,1.206C19.67,3.576,21.682,4.754,23.146,5.967z"/>
	<path fill="#E5E5E4" d="M30.768,25.285c0.131-0.072,0.129,0.238,0.146,0.484c0.046,0.713,0.143,2.211,0,2.649
		c-0.124,0.383-1.131,0.828-1.543,1.063c-1.43,0.807-2.893,1.143-5.211,1.207c-0.5,0.014-1.76,0.063-0.965-0.146
		c1.693-0.445,3.229-0.902,4.533-1.641c1.502-0.851,2.752-1.875,3.039-3.521C30.77,25.371,30.762,25.291,30.768,25.285z"/>
	<path fill="#E5E5E4" d="M16.971,25.963c-1.429-1.121-2.398-2.49-3.91-3.615c-0.381-0.285,0.457,0.113,0.629,0.191
		c1.054,0.477,2.192,0.986,3.617,0.82c2.478-0.287,2.983-3.439,3.377-5.74c0.074-0.436,0.123-1.335,0.192-1.976
		c0.074-0.679,0.198,0.876,0.24,1.109c0.112,0.613,0.194,1.971,0.146,2.605c0,0.817,0,1.641,0,2.461
		c-0.027,2.397-0.068,4.295-0.289,6.703c-0.078,0.848,0.021,1.127-0.482,0.676c-0.795-0.709-1.596-1.416-2.314-2.121
		C17.803,26.674,17.376,26.33,16.971,25.963z"/>
</g>
<g>
	<path fill="#FFFFFF" stroke="#000000" stroke-miterlimit="10" d="M9.531,28.25"/>
	<path fill="#E56700" stroke="#000000" stroke-width="0.75" stroke-miterlimit="10" d="M23.105,24.951
		c-2.916,3.488-22.163,5.016-22.838,2.914c0.269-3.592,3.271-9.947,6.646-12.207c1.948,0.428,5.612,0.566,8.069-0.269
		C14.902,15.526,19.971,19.881,23.105,24.951z"/>
	<path fill="#4968AD" stroke="#000000" stroke-width="0.5" stroke-miterlimit="10" d="M12.113,16.151
		c-0.051,1.216-0.502,1.568-0.627,1.812c1.215,0.934,0.99,1.021,2.691,2.742c-0.261,0.609-1.367,4.52-2.147,4.328
		c-1.729-3.094-2.706-3.389-3.235-4.785c-0.029-2.1,1.198-2.182,1.031-2.313c-0.167-0.138-0.949-0.513-1.031-1.786"/>
	<path fill="#FCD2A0" stroke="#000000" stroke-width="0.75" stroke-miterlimit="10" d="M14.982,15.39
		c-2.457,0.835-6.121,0.697-8.069,0.269c-0.845-0.595-3.147-2.064-3.076-4.93c0.298-2.101,1.091-4.711,5.425-4.907
		C19.396,6.832,18.523,13.892,14.982,15.39z"/>
	<path fill="none" stroke="#000000" stroke-width="0.5" stroke-miterlimit="10" d="M9.828,17.898
		c0.482,0.51,1.598,0.024,1.598,0.024"/>
	<g>
		<g>
			<path d="M7.407,13.39c0.12,0.35,0.175,0.533,0.516,0.699c0.403,0.197,0.892,0.184,1.329,0.184
				c0.915,0.002,1.82-0.271,2.594-0.744c0.203-0.125,0.139-0.279-0.08-0.299c-0.287-0.023-0.59,0.074-0.832,0.223
				c-0.416,0.256-0.894,0.307-1.377,0.293c-0.592-0.016-0.797-0.158-0.973-0.674C8.477,12.759,7.311,13.106,7.407,13.39L7.407,13.39
				z"/>
		</g>
	</g>
	<g>
		<g>
			<path d="M7.701,9.566c-0.023,0.219-0.006,0.43,0.043,0.645c0.156,0.684,1.807,0.254,1.648-0.443
				C9.363,9.634,9.348,9.541,9.363,9.406C9.445,8.632,7.773,8.903,7.701,9.566L7.701,9.566z"/>
		</g>
	</g>
	<g>
		<g>
			<path d="M10.838,10.009c0.003,0.01,0.006,0.019,0.01,0.027c0.31,0.633,2.032,0.076,1.766-0.473
				c-0.098-0.202-0.19-0.307-0.377-0.434C11.738,8.792,10.111,9.514,10.838,10.009L10.838,10.009z"/>
		</g>
	</g>
	<path fill="none" stroke="#000000" stroke-width="0.5" stroke-miterlimit="10" d="M18.945,15.758"/>
</g>
<path fill="#FFFFFF" stroke="#000000" stroke-miterlimit="10" d="M9.791,23.08"/>
<path fill="none" stroke="#000000" stroke-width="0.5" stroke-miterlimit="10" d="M19.205,10.589"/>
<g>
	<polyline fill="#20CE20" stroke="#025429" stroke-width="0.75" stroke-miterlimit="10" points="17.327,21.355 24.889,21.402 
		24.889,16.785 30.57,22.777 24.889,28.654 24.889,24.352 17.327,24.352 	"/>
	<polyline fill="#ED0606" stroke="#A81916" stroke-width="0.75" stroke-miterlimit="10" points="17.327,24.352 9.821,24.352 
		9.821,28.654 4.265,22.777 9.821,16.654 9.698,21.309 17.327,21.355 	"/>
</g>
</svg>
