<?xml version="1.0" encoding="utf-8"?>
<!-- Generator: Adobe Illustrator 16.0.0, SVG Export Plug-In . SVG Version: 6.00 Build 0)  -->
<!DOCTYPE svg PUBLIC "-//W3C//DTD SVG 1.1//EN" "http://www.w3.org/Graphics/SVG/1.1/DTD/svg11.dtd">
<svg version="1.1" id="Calque_1" xmlns="http://www.w3.org/2000/svg" xmlns:xlink="http://www.w3.org/1999/xlink" x="0px" y="0px"
	 width="32px" height="32px" viewBox="0 0 32 32" enable-background="new 0 0 32 32" xml:space="preserve">
<g>
	<path fill="#0F0F0F" d="M15.139,0.596c0.323,0,0.645,0,0.965,0c4.871,2.94,9.751,6.073,14.664,9.02
		c0.174,0.104,0.332,0.153,0.481,0.291c0.144,0.127,0.164,0.301,0.388,0.385c0.111,3.893-0.025,8.033,0.096,11.916
		c0,2.25,0,4.502,0,6.752c-1.926,1.47-4.356,2.429-7.67,2.511c-0.689,0-1.383,0-2.074,0c-0.661-0.06-1.479-1.105-2.119-1.689
		c-3.063-2.787-5.864-5.475-8.875-8.344c-0.543-0.519-1.187-1.049-1.786-1.642C8.721,19.313,7.6,18.58,7.471,18.107
		c-0.216-0.797,0-2.816,0-3.714c0-3.598-0.101-7.3-0.144-10.854c0-0.835,0-1.671,0-2.508c0.223-0.1,0.31-0.158,0.578-0.193
		C10.143,0.543,12.854,0.886,15.139,0.596z M16.008,1.031c-2.615,0.021-5.111,0.164-7.718,0.193c3.622,2.98,7.92,6.291,11.72,9.356
		c0.512,0.412,1.271,1.121,1.738,1.303c0.697,0.271,1.768,0.188,2.604,0.193c2.058,0.011,3.313-0.438,4.681-0.965
		c0.7-0.271,1.425-0.459,1.882-0.965C25.916,7.137,20.96,4.085,16.008,1.031z M7.855,1.56C7.854,1.511,7.794,1.522,7.807,1.61
		c0.092,4.547-0.029,9.697,0.145,14.326c0.027,0.738-0.139,1.619,0,2.074c0.056,0.184,0.535,0.557,0.82,0.818
		c0.895,0.826,1.759,1.58,2.556,2.365c2.356,2.315,4.421,4.203,6.752,6.367c0.995,0.924,2.07,1.842,2.99,2.75
		c0.104,0.102,0.178,0.354,0.389,0.289c0.059-6.054,0.029-12.189,0.098-18.234C17.034,8.718,12.417,5.168,7.855,1.56z
		 M31.057,10.726c-1.219,0.451-2.533,1.208-4.004,1.543c-1.468,0.335-3.244,0.193-4.968,0.097
		c-0.041,6.229-0.132,12.409-0.144,18.667c1.927-0.045,3.822,0.072,5.644-0.385c0.646-0.164,1.245-0.525,1.931-0.869
		c0.549-0.279,1.637-0.654,1.784-1.063c0.162-0.452-0.049-1.452-0.049-2.17c0-5.354-0.03-10.755-0.048-15.822
		C31.184,10.644,31.141,10.737,31.057,10.726z"/>
	<path fill="#B4B3B3" d="M21.557,12.366C21.49,18.41,21.518,24.547,21.459,30.6c-0.211,0.066-0.284-0.188-0.387-0.289
		c-0.92-0.908-1.997-1.824-2.992-2.75c-2.331-2.164-4.396-4.049-6.752-6.367c-0.797-0.786-1.662-1.539-2.557-2.364
		c-0.285-0.263-0.764-0.636-0.819-0.815c-0.138-0.455,0.026-1.339,0-2.076C7.779,11.307,7.898,6.158,7.809,1.61
		C7.795,1.522,7.854,1.511,7.855,1.56C12.417,5.168,17.034,8.718,21.557,12.366z"/>
	<path fill="#CECCCC" d="M31.202,10.726c0.019,5.065,0.048,10.469,0.048,15.821c0,0.715,0.212,1.719,0.049,2.172
		c-0.146,0.406-1.234,0.781-1.785,1.061c-0.684,0.347-1.283,0.705-1.93,0.869c-1.818,0.457-3.717,0.343-5.645,0.386
		c0.014-6.257,0.103-12.438,0.145-18.666c1.725,0.097,3.5,0.239,4.969-0.098c1.471-0.336,2.785-1.092,4.004-1.543
		C31.141,10.737,31.184,10.644,31.202,10.726z M23.146,14.634c-0.08,0.84-0.08,2.002,0,2.847c2.455-0.424,4.81-0.947,7.232-1.4
		c-0.033-0.906,0.229-2.021,0.051-2.75c-0.002-0.03-0.009-0.058-0.051-0.049C27.945,13.709,25.543,14.168,23.146,14.634z
		 M24.208,18.926c0,0.209,0,0.42,0,0.627c1.836-0.367,3.674-0.729,5.498-1.109c-0.048-0.157,0.106-0.522-0.097-0.528
		C27.807,18.246,25.979,18.559,24.208,18.926z M28.453,21.193c0,0.498,0,0.996,0,1.494c0.49-0.119,1.016-0.205,1.543-0.289
		c0-0.449,0-0.9,0-1.353C29.43,21.043,28.991,21.168,28.453,21.193z M28.984,24.279c0,0.387,0,0.772,0,1.16
		c0.264,0.045,0.681-0.146,1.061-0.146c0-0.385,0-0.771,0-1.156C29.721,24.211,29.273,24.168,28.984,24.279z"/>
	<path d="M30.381,13.282c0.042-0.009,0.047,0.021,0.051,0.049c0.178,0.728-0.086,1.844-0.051,2.75
		c-2.425,0.453-4.779,0.976-7.234,1.399c-0.078-0.842-0.078-2.004,0-2.846C25.543,14.168,27.945,13.709,30.381,13.282z
		 M23.243,14.78c0,0.853,0,1.702,0,2.554c2.339-0.443,4.616-0.946,6.993-1.35c-0.002-0.776,0.177-1.881,0-2.508
		C27.857,13.862,25.544,14.313,23.243,14.78z"/>
	<path fill="#EFEFEF" d="M30.236,13.475c0.177,0.627-0.002,1.73,0,2.508c-2.377,0.403-4.655,0.906-6.993,1.351
		c0-0.853,0-1.703,0-2.556C25.544,14.313,27.857,13.862,30.236,13.475z"/>
	<path fill="#154A89" d="M29.609,17.912c0.203,0.006,0.049,0.371,0.097,0.529c-1.824,0.379-3.662,0.744-5.498,1.11
		c0-0.209,0-0.42,0-0.629C25.979,18.559,27.807,18.246,29.609,17.912z"/>
	<path d="M29.996,21.049c0,0.449,0,0.898,0,1.352c-0.527,0.082-1.053,0.17-1.543,0.287c0-0.498,0-0.996,0-1.494
		C28.991,21.168,29.43,21.043,29.996,21.049z M28.598,21.338c0,0.387,0,0.77,0,1.156c0.387-0.094,0.838-0.125,1.205-0.238
		c-0.059-0.328,0.121-0.895-0.097-1.063C29.357,21.264,28.957,21.281,28.598,21.338z"/>
	<path fill="#35A937" d="M29.706,21.193c0.22,0.166,0.039,0.733,0.099,1.063c-0.369,0.111-0.818,0.145-1.205,0.24
		c0-0.389,0-0.771,0-1.158C28.957,21.281,29.357,21.264,29.706,21.193z"/>
	<path d="M30.045,24.135c0,0.387,0,0.771,0,1.158c-0.38,0-0.796,0.189-1.061,0.145c0-0.385,0-0.771,0-1.158
		C29.273,24.168,29.721,24.211,30.045,24.135z M29.128,24.426c0.086,0.184,0.072,0.68,0,0.867c0.229-0.063,0.501-0.076,0.724-0.145
		c0-0.273,0-0.547,0-0.82C29.586,24.336,29.326,24.352,29.128,24.426z"/>
	<path fill="#B3B4B3" d="M29.852,24.326c0,0.273,0,0.547,0,0.822c-0.224,0.065-0.494,0.082-0.724,0.145
		c0.072-0.188,0.086-0.686,0-0.869C29.326,24.352,29.586,24.336,29.852,24.326z"/>
	<path fill="#FFFFFF" d="M31.732,28.957c0,0.838,0,1.676,0,2.51c-2.559,0-5.113,0-7.67,0C27.374,31.385,29.807,30.426,31.732,28.957
		z"/>
	<path fill="#B4B3B3" d="M30.912,10.148c-0.457,0.507-1.182,0.694-1.881,0.964c-1.366,0.528-2.624,0.977-4.68,0.965
		c-0.836-0.004-1.904,0.078-2.604-0.192c-0.468-0.181-1.229-0.892-1.735-1.304C16.209,7.515,11.911,4.205,8.29,1.225
		c2.607-0.03,5.102-0.172,7.718-0.193C20.96,4.085,25.916,7.137,30.912,10.148z M18.033,2.477c-0.598-0.412-1.29-1.041-1.881-1.206
		c-1.575-0.441-3.436,0.13-5.161,0.098c-0.054,0.018-0.038,0.042,0.047,0.047c5.228,0.343,8.547,2.688,12.106,4.583
		C21.682,4.786,19.67,3.608,18.033,2.477z"/>
	<path fill="#6F7A71" d="M23.146,5.999c-3.563-1.895-6.879-4.24-12.107-4.583c-0.085-0.005-0.1-0.03-0.047-0.047
		c1.729,0.033,3.585-0.538,5.162-0.098c0.59,0.166,1.282,0.794,1.88,1.206C19.67,3.608,21.682,4.786,23.146,5.999z"/>
	<path fill="#E5E5E4" d="M30.768,25.318c0.131-0.072,0.129,0.238,0.146,0.483c0.046,0.714,0.143,2.212,0,2.65
		c-0.124,0.383-1.131,0.827-1.543,1.063c-1.43,0.807-2.893,1.143-5.211,1.207c-0.5,0.014-1.76,0.063-0.965-0.146
		c1.693-0.445,3.229-0.902,4.533-1.641c1.502-0.851,2.752-1.875,3.039-3.521C30.77,25.404,30.762,25.324,30.768,25.318z"/>
	<path fill="#E5E5E4" d="M16.971,25.996c-1.429-1.121-2.398-2.49-3.91-3.615c-0.381-0.285,0.457,0.113,0.629,0.191
		c1.054,0.477,2.192,0.986,3.617,0.82c2.478-0.287,2.983-3.439,3.377-5.74c0.074-0.437,0.123-1.335,0.192-1.977
		c0.074-0.68,0.198,0.876,0.24,1.109c0.112,0.613,0.194,1.971,0.146,2.605c0,0.817,0,1.641,0,2.461
		c-0.027,2.397-0.068,4.295-0.289,6.703c-0.078,0.848,0.021,1.127-0.482,0.676c-0.795-0.709-1.596-1.416-2.314-2.121
		C17.803,26.707,17.376,26.363,16.971,25.996z"/>
</g>
<g>
	<path fill="#FFFFFF" stroke="#000000" stroke-miterlimit="10" d="M9.531,28.283"/>
	<path fill="#E56700" stroke="#000000" stroke-width="0.75" stroke-miterlimit="10" d="M23.105,24.984
		C20.189,28.473,0.943,30,0.268,27.898c0.269-3.592,3.271-9.947,6.646-12.208c1.948,0.429,5.612,0.567,8.069-0.269
		C14.902,15.559,19.971,19.914,23.105,24.984z"/>
	<path fill="#4968AD" stroke="#000000" stroke-width="0.5" stroke-miterlimit="10" d="M12.113,16.183
		c-0.051,1.217-0.502,1.569-0.627,1.813c1.215,0.934,0.99,1.021,2.691,2.742c-0.261,0.609-1.367,4.52-2.147,4.328
		c-1.729-3.094-2.706-3.39-3.235-4.785c-0.029-2.1,1.198-2.182,1.031-2.313c-0.167-0.137-0.949-0.512-1.031-1.786"/>
	<path fill="#FCD2A0" stroke="#000000" stroke-width="0.75" stroke-miterlimit="10" d="M14.982,15.422
		c-2.457,0.836-6.121,0.697-8.069,0.269c-0.845-0.596-3.147-2.063-3.076-4.93c0.298-2.1,1.091-4.711,5.425-4.907
		C19.396,6.864,18.523,13.924,14.982,15.422z"/>
	<path fill="none" stroke="#000000" stroke-width="0.5" stroke-miterlimit="10" d="M9.828,17.932
		c0.482,0.51,1.598,0.025,1.598,0.025"/>
	<g>
		<g>
			<path d="M7.407,13.421c0.12,0.351,0.175,0.534,0.516,0.7c0.403,0.196,0.892,0.183,1.329,0.184
				c0.915,0.001,1.82-0.271,2.594-0.745c0.203-0.125,0.139-0.278-0.08-0.299c-0.287-0.021-0.59,0.075-0.832,0.224
				c-0.416,0.256-0.894,0.307-1.377,0.293c-0.592-0.017-0.797-0.158-0.973-0.674C8.477,12.792,7.311,13.139,7.407,13.421
				L7.407,13.421z"/>
		</g>
	</g>
	<g>
		<g>
			<path d="M7.701,9.598c-0.023,0.219-0.006,0.43,0.043,0.645C7.9,10.927,9.551,10.497,9.392,9.8
				C9.363,9.667,9.348,9.573,9.363,9.438C9.445,8.665,7.773,8.935,7.701,9.598L7.701,9.598z"/>
		</g>
	</g>
	<g>
		<g>
			<path d="M10.838,10.042c0.003,0.01,0.006,0.019,0.01,0.027c0.31,0.633,2.032,0.076,1.766-0.473
				c-0.098-0.202-0.19-0.307-0.377-0.434C11.738,8.825,10.111,9.546,10.838,10.042L10.838,10.042z"/>
		</g>
	</g>
	<path fill="none" stroke="#000000" stroke-width="0.5" stroke-miterlimit="10" d="M18.945,15.792"/>
</g>
<path fill="#FFFFFF" stroke="#000000" stroke-miterlimit="10" d="M9.791,23.113"/>
<path fill="none" stroke="#000000" stroke-width="0.5" stroke-miterlimit="10" d="M19.205,10.622"/>
<polygon fill="#20CE20" stroke="#025429" stroke-width="0.75" stroke-miterlimit="10" points="6.956,24.125 18.902,24.125 
	18.902,28.475 27.88,22.535 18.902,16.475 18.902,21.143 6.956,21.094 "/>
</svg>
