<?xml version="1.0" encoding="utf-8"?>
<!-- Generator: Adobe Illustrator 16.0.0, SVG Export Plug-In . SVG Version: 6.00 Build 0)  -->
<!DOCTYPE svg PUBLIC "-//W3C//DTD SVG 1.1//EN" "http://www.w3.org/Graphics/SVG/1.1/DTD/svg11.dtd">
<svg version="1.1" id="Calque_1" xmlns="http://www.w3.org/2000/svg" xmlns:xlink="http://www.w3.org/1999/xlink" x="0px" y="0px"
	 width="32px" height="32px" viewBox="0 0 32 32" enable-background="new 0 0 32 32" xml:space="preserve">
<path fill="#FFFFFF" stroke="#000000" stroke-miterlimit="10" d="M8.848,24.938"/>
<g>
	<path fill="#FFFFFF" stroke="#000000" stroke-miterlimit="10" d="M8.509,20.074"/>
	<path fill="#FACEAF" stroke="#7E7F7F" stroke-width="0.5" stroke-miterlimit="10" d="M20.455,17.168
		c-2.564,3.072-19.501,4.416-20.098,2.564c0.236-3.158,2.879-8.753,5.848-10.743c1.715,0.377,4.939,0.5,7.103-0.236
		C13.236,8.876,17.695,12.708,20.455,17.168z"/>
	<path fill="#86A3D1" stroke="#6F5F5C" stroke-width="0.5" stroke-miterlimit="10" d="M10.781,9.426
		c-0.045,1.071-0.441,1.382-0.552,1.595c1.069,0.821,0.872,0.898,2.37,2.414c-0.23,0.537-1.203,3.976-1.891,3.81
		c-1.522-2.721-2.381-2.98-2.848-4.21c-0.025-1.847,1.055-1.918,0.908-2.037c-0.146-0.117-0.835-0.448-0.908-1.57"/>
	<path fill="#FDE8D0" stroke="#7E7F7F" stroke-width="0.5" stroke-miterlimit="10" d="M13.307,8.756
		c-2.163,0.735-5.388,0.613-7.103,0.236c-0.742-0.524-2.77-1.816-2.707-4.338c0.264-1.848,0.961-4.145,4.774-4.318
		C17.191,1.224,16.42,7.438,13.307,8.756z"/>
	<path fill="none" stroke="#6F5F5C" stroke-width="0.5" stroke-miterlimit="10" d="M8.849,10.965
		c0.426,0.448,1.407,0.023,1.407,0.023"/>
	<g>
		<g>
			<path fill="#817568" d="M6.752,6.848c0.122,0.354,0.173,0.533,0.515,0.7c0.389,0.188,0.865,0.174,1.286,0.174
				c0.879,0.001,1.745-0.255,2.488-0.711c0.167-0.102,0.114-0.229-0.065-0.245c-0.236-0.02-0.483,0.061-0.683,0.183
				c-0.47,0.288-1.005,0.354-1.55,0.339c-0.616-0.016-0.841-0.164-1.024-0.7C7.63,6.332,6.674,6.618,6.752,6.848L6.752,6.848z"/>
		</g>
	</g>
	<g>
		<g>
			<path fill="#817568" d="M7.028,3.469C7.009,3.692,7.023,3.89,7.07,4.111C7.2,4.712,8.652,4.338,8.519,3.722
				c-0.04-0.128-0.051-0.26-0.032-0.395C8.543,2.642,7.076,2.887,7.028,3.469L7.028,3.469z"/>
		</g>
	</g>
	<g>
		<g>
			<path fill="#817568" d="M9.773,3.932C9.785,3.951,9.796,3.97,9.808,3.989c0.253,0.52,1.669,0.064,1.449-0.388
				c-0.088-0.18-0.171-0.276-0.336-0.389C10.512,2.933,9.177,3.525,9.773,3.932L9.773,3.932z"/>
		</g>
	</g>
	<path fill="none" stroke="#000000" stroke-width="0.5" stroke-miterlimit="10" d="M16.793,9.082"/>
	<path fill="none" stroke="#000000" stroke-width="0.5" stroke-miterlimit="10" d="M13.193,13.917"/>
</g>
<g>
	<path fill="#FFFFFF" stroke="#000000" stroke-miterlimit="10" d="M24.291,12.529"/>
	<path fill="#0F0F0F" d="M19.891,9.057c0.233,0,0.467,0,0.702,0c3.548,2.141,7.101,4.422,10.679,6.568
		c0.127,0.076,0.24,0.113,0.351,0.212c0.104,0.093,0.116,0.219,0.28,0.28c0.082,2.834-0.019,5.852,0.072,8.68
		c0,1.637,0,3.277,0,4.916c-1.404,1.068-3.177,1.768-5.588,1.827c-0.504,0-1.007,0-1.511,0c-0.481-0.042-1.078-0.804-1.543-1.229
		c-2.229-2.031-4.271-3.987-6.463-6.08c-0.396-0.375-0.866-0.762-1.302-1.19c-0.355-0.353-1.17-0.886-1.264-1.229
		c-0.157-0.578,0-2.055,0-2.707c0-2.62-0.073-5.314-0.105-7.902c0-0.609,0-1.217,0-1.826c0.165-0.072,0.228-0.114,0.423-0.14
		C16.252,9.02,18.227,9.269,19.891,9.057z M20.523,9.375c-1.905,0.015-3.723,0.118-5.622,0.14c2.637,2.171,5.768,4.581,8.536,6.814
		c0.371,0.3,0.924,0.815,1.265,0.946c0.511,0.199,1.289,0.139,1.896,0.142c1.496,0.008,2.411-0.317,3.407-0.701
		c0.511-0.196,1.037-0.334,1.369-0.703C27.738,13.821,24.129,11.597,20.523,9.375z M14.587,9.76
		c-0.001-0.036-0.045-0.029-0.036,0.036c0.066,3.312-0.021,7.062,0.105,10.433c0.02,0.537-0.101,1.181,0,1.513
		c0.041,0.133,0.39,0.405,0.598,0.596c0.651,0.601,1.28,1.151,1.862,1.722c1.714,1.688,3.219,3.062,4.916,4.637
		c0.725,0.675,1.507,1.343,2.178,2.004c0.074,0.074,0.128,0.258,0.281,0.21c0.042-4.407,0.021-8.875,0.069-13.279
		C21.27,14.973,17.909,12.387,14.587,9.76z M31.482,16.435c-0.89,0.329-1.846,0.879-2.916,1.125
		c-1.069,0.241-2.363,0.139-3.619,0.066c-0.029,4.537-0.096,9.039-0.104,13.598c1.401-0.033,2.784,0.053,4.109-0.281
		c0.47-0.119,0.904-0.381,1.404-0.633c0.4-0.203,1.192-0.477,1.3-0.772c0.118-0.331-0.034-1.06-0.034-1.582
		c0-3.897-0.021-7.831-0.035-11.521C31.572,16.375,31.543,16.442,31.482,16.435z"/>
	<path fill="#B4B3B3" d="M24.563,17.628c-0.047,4.404-0.027,8.871-0.069,13.279c-0.152,0.05-0.206-0.138-0.28-0.212
		c-0.671-0.661-1.455-1.329-2.179-2.002c-1.697-1.575-3.201-2.947-4.917-4.639c-0.582-0.57-1.211-1.119-1.862-1.72
		c-0.207-0.192-0.557-0.463-0.597-0.596c-0.102-0.331,0.021-0.978,0-1.513c-0.126-3.369-0.038-7.121-0.106-10.433
		c-0.009-0.064,0.034-0.072,0.036-0.036C17.909,12.387,21.27,14.973,24.563,17.628z"/>
	<path fill="#CECCCC" d="M31.587,16.435c0.015,3.69,0.035,7.625,0.035,11.521c0,0.521,0.153,1.251,0.036,1.582
		c-0.105,0.297-0.899,0.569-1.301,0.772c-0.5,0.25-0.936,0.514-1.403,0.633c-1.326,0.334-2.708,0.248-4.111,0.281
		c0.011-4.559,0.076-9.061,0.106-13.598c1.254,0.071,2.548,0.178,3.617-0.066c1.07-0.246,2.027-0.797,2.916-1.125
		C31.543,16.442,31.572,16.375,31.587,16.435z M25.723,19.279c-0.06,0.613-0.06,1.462,0,2.074c1.786-0.309,3.502-0.69,5.268-1.021
		c-0.025-0.66,0.164-1.474,0.035-2.002c0-0.021-0.006-0.042-0.035-0.036C29.217,18.605,27.467,18.939,25.723,19.279z M26.493,22.404
		c0,0.152,0,0.307,0,0.46c1.337-0.269,2.676-0.533,4.005-0.81c-0.035-0.115,0.078-0.382-0.07-0.385
		C29.113,21.912,27.782,22.139,26.493,22.404z M29.585,24.057c0,0.364,0,0.727,0,1.09c0.358-0.086,0.741-0.148,1.126-0.211
		c0-0.326,0-0.656,0-0.983C30.296,23.948,29.979,24.041,29.585,24.057z M29.973,26.307c0,0.28,0,0.561,0,0.842
		c0.192,0.033,0.496-0.104,0.771-0.104c0-0.28,0-0.563,0-0.844C30.508,26.254,30.184,26.225,29.973,26.307z"/>
	<path d="M30.988,18.296c0.031-0.006,0.035,0.015,0.037,0.034c0.131,0.529-0.063,1.342-0.037,2.002
		c-1.766,0.331-3.479,0.712-5.268,1.021c-0.059-0.614-0.059-1.463,0-2.074C27.467,18.939,29.217,18.605,30.988,18.296z
		 M25.792,19.386c0,0.62,0,1.24,0,1.861c1.704-0.324,3.362-0.688,5.095-0.983c-0.002-0.564,0.127-1.369,0-1.826
		C29.15,18.717,27.468,19.046,25.792,19.386z"/>
	<path fill="#EFEFEF" d="M30.887,18.436c0.125,0.457-0.003,1.262,0,1.828c-1.732,0.295-3.393,0.659-5.095,0.983
		c0-0.621,0-1.241,0-1.862C27.468,19.046,29.15,18.717,30.887,18.436z"/>
	<path fill="#154A89" d="M30.428,21.671c0.148,0.003,0.035,0.269,0.07,0.384c-1.329,0.276-2.667,0.543-4.005,0.809
		c0-0.151,0-0.305,0-0.457C27.782,22.139,29.113,21.912,30.428,21.671z"/>
	<path d="M30.709,23.951c0,0.328,0,0.656,0,0.984c-0.383,0.061-0.768,0.125-1.124,0.209c0-0.362,0-0.725,0-1.088
		C29.979,24.041,30.296,23.948,30.709,23.951z M29.689,24.163c0,0.28,0,0.563,0,0.844c0.281-0.069,0.61-0.093,0.877-0.176
		c-0.041-0.238,0.088-0.651-0.069-0.772C30.245,24.107,29.953,24.121,29.689,24.163z"/>
	<path fill="#35A937" d="M30.498,24.057c0.159,0.123,0.027,0.534,0.07,0.775c-0.269,0.082-0.596,0.105-0.877,0.175
		c0-0.282,0-0.563,0-0.843C29.953,24.121,30.245,24.107,30.498,24.057z"/>
	<path d="M30.743,26.198c0,0.282,0,0.563,0,0.846c-0.275-0.001-0.578,0.138-0.772,0.104c0-0.281,0-0.562,0-0.842
		C30.184,26.225,30.508,26.254,30.743,26.198z M30.078,26.412c0.063,0.133,0.051,0.495,0,0.632c0.166-0.046,0.365-0.058,0.525-0.104
		c0-0.198,0-0.398,0-0.599C30.411,26.346,30.223,26.355,30.078,26.412z"/>
	<path fill="#B3B4B3" d="M30.604,26.34c0,0.199,0,0.4,0,0.598c-0.162,0.051-0.358,0.062-0.524,0.105
		c0.051-0.136,0.063-0.498,0-0.633C30.223,26.355,30.411,26.346,30.604,26.34z"/>
	<path fill="#B4B3B3" d="M31.375,16.013c-0.332,0.369-0.859,0.504-1.368,0.702c-0.995,0.385-1.911,0.711-3.407,0.701
		c-0.609-0.003-1.387,0.059-1.896-0.139c-0.341-0.131-0.894-0.648-1.265-0.949c-2.769-2.234-5.898-4.643-8.537-6.814
		c1.9-0.022,3.716-0.124,5.623-0.14C24.129,11.597,27.738,13.821,31.375,16.013z M21.999,10.428c-0.437-0.301-0.94-0.758-1.37-0.878
		c-1.146-0.321-2.5,0.095-3.757,0.07c-0.039,0.013-0.028,0.032,0.032,0.035c3.808,0.249,6.226,1.957,8.816,3.337
		C24.654,12.11,23.189,11.25,21.999,10.428z"/>
	<path fill="#6F7A71" d="M25.723,12.992c-2.593-1.38-5.011-3.087-8.816-3.337c-0.063-0.003-0.074-0.022-0.033-0.035
		c1.257,0.024,2.609-0.392,3.757-0.07c0.431,0.12,0.937,0.577,1.37,0.878C23.189,11.25,24.654,12.11,25.723,12.992z"/>
	<path fill="#E5E5E4" d="M31.271,27.063c0.096-0.054,0.094,0.172,0.106,0.351c0.031,0.522,0.103,1.612,0,1.935
		c-0.091,0.276-0.823,0.602-1.125,0.771c-1.039,0.59-2.104,0.832-3.794,0.879c-0.363,0.011-1.281,0.046-0.703-0.104
		c1.232-0.326,2.354-0.658,3.303-1.197c1.094-0.616,2.004-1.363,2.213-2.563C31.271,27.123,31.266,27.064,31.271,27.063z"/>
	<path fill="#E5E5E4" d="M21.225,27.557c-1.041-0.815-1.748-1.814-2.848-2.635c-0.277-0.206,0.331,0.085,0.456,0.143
		c0.769,0.347,1.599,0.715,2.636,0.598c1.803-0.211,2.174-2.505,2.459-4.182c0.055-0.317,0.088-0.974,0.141-1.439
		c0.055-0.495,0.146,0.637,0.175,0.809c0.083,0.446,0.144,1.437,0.106,1.896c0,0.6,0,1.193,0,1.793
		c-0.02,1.747-0.051,3.128-0.211,4.882c-0.057,0.616,0.016,0.819-0.353,0.49c-0.577-0.517-1.16-1.031-1.685-1.546
		C21.829,28.074,21.52,27.822,21.225,27.557z"/>
</g>
<polygon fill="#20CE20" stroke="#025429" stroke-width="0.5" stroke-miterlimit="10" points="4.875,21.641 15.523,21.641 
	15.523,26.749 23.523,19.771 15.523,12.657 15.523,18.137 4.875,18.08 "/>
</svg>
