<?xml version="1.0" encoding="utf-8"?>
<!-- Generator: Adobe Illustrator 16.0.0, SVG Export Plug-In . SVG Version: 6.00 Build 0)  -->
<!DOCTYPE svg PUBLIC "-//W3C//DTD SVG 1.1//EN" "http://www.w3.org/Graphics/SVG/1.1/DTD/svg11.dtd">
<svg version="1.1" id="Calque_1" xmlns="http://www.w3.org/2000/svg" xmlns:xlink="http://www.w3.org/1999/xlink" x="0px" y="0px"
	 width="32px" height="32px" viewBox="0 0 32 32" enable-background="new 0 0 32 32" xml:space="preserve">
<path fill="#FFFFFF" stroke="#000000" stroke-miterlimit="10" d="M8.874,25.105"/>
<g>
	<path fill="#FFFFFF" stroke="#000000" stroke-miterlimit="10" d="M8.536,20.242"/>
	<path fill="#FACEAF" stroke="#7E7F7F" stroke-width="0.5" stroke-miterlimit="10" d="M20.48,17.336
		c-2.563,3.072-19.5,4.416-20.098,2.564c0.236-3.158,2.879-8.753,5.848-10.743c1.715,0.377,4.939,0.5,7.104-0.236
		C13.263,9.044,17.723,12.876,20.48,17.336z"/>
	<path fill="#86A3D1" stroke="#6F5F5C" stroke-width="0.5" stroke-miterlimit="10" d="M10.808,9.594
		c-0.045,1.071-0.441,1.382-0.553,1.595c1.069,0.821,0.873,0.898,2.371,2.414c-0.23,0.537-1.203,3.976-1.892,3.81
		c-1.522-2.721-2.381-2.98-2.849-4.21c-0.024-1.847,1.056-1.918,0.908-2.037c-0.146-0.117-0.834-0.448-0.908-1.57"/>
	<path fill="#FDE8D0" stroke="#7E7F7F" stroke-width="0.5" stroke-miterlimit="10" d="M13.333,8.924
		C11.171,9.659,7.945,9.537,6.23,9.16C5.488,8.636,3.46,7.344,3.523,4.822c0.265-1.848,0.961-4.145,4.774-4.318
		C17.218,1.392,16.446,7.605,13.333,8.924z"/>
	<path fill="none" stroke="#6F5F5C" stroke-width="0.5" stroke-miterlimit="10" d="M8.876,11.133
		c0.426,0.448,1.406,0.023,1.406,0.023"/>
	<g>
		<g>
			<path fill="#817568" d="M6.778,7.016C6.9,7.37,6.951,7.549,7.294,7.716C7.683,7.904,8.158,7.89,8.579,7.89
				c0.879,0.001,1.745-0.255,2.488-0.711c0.167-0.102,0.114-0.23-0.064-0.245c-0.236-0.02-0.483,0.061-0.684,0.183
				C9.85,7.405,9.314,7.471,8.77,7.456c-0.616-0.016-0.841-0.164-1.024-0.7C7.656,6.5,6.7,6.786,6.778,7.016L6.778,7.016z"/>
		</g>
	</g>
	<g>
		<g>
			<path fill="#817568" d="M7.054,3.637C7.036,3.86,7.05,4.058,7.097,4.279C7.227,4.88,8.679,4.506,8.546,3.89
				C8.505,3.762,8.495,3.63,8.513,3.495C8.569,2.81,7.103,3.055,7.054,3.637L7.054,3.637z"/>
		</g>
	</g>
	<g>
		<g>
			<path fill="#817568" d="M9.8,4.1c0.012,0.019,0.022,0.038,0.035,0.057c0.252,0.52,1.668,0.064,1.448-0.388
				c-0.088-0.18-0.171-0.276-0.336-0.389C10.538,3.101,9.204,3.693,9.8,4.1L9.8,4.1z"/>
		</g>
	</g>
	<path fill="none" stroke="#000000" stroke-width="0.5" stroke-miterlimit="10" d="M16.818,9.25"/>
	<path fill="none" stroke="#000000" stroke-width="0.5" stroke-miterlimit="10" d="M13.22,14.084"/>
</g>
<g>
	<path fill="#FFFFFF" stroke="#000000" stroke-miterlimit="10" d="M24.316,12.697"/>
	<path fill="#0F0F0F" d="M19.917,9.225c0.233,0,0.467,0,0.702,0c3.548,2.141,7.102,4.422,10.678,6.568
		c0.127,0.076,0.241,0.113,0.352,0.212c0.104,0.093,0.117,0.22,0.279,0.28c0.082,2.834-0.018,5.852,0.072,8.68
		c0,1.637,0,3.277,0,4.916c-1.404,1.068-3.176,1.768-5.587,1.827c-0.504,0-1.007,0-1.511,0c-0.482-0.042-1.078-0.804-1.543-1.229
		c-2.229-2.03-4.271-3.987-6.463-6.08c-0.396-0.375-0.867-0.762-1.302-1.19c-0.355-0.353-1.17-0.885-1.264-1.229
		c-0.156-0.578,0-2.055,0-2.707c0-2.619-0.072-5.314-0.105-7.902c0-0.609,0-1.217,0-1.826c0.165-0.072,0.229-0.114,0.424-0.14
		C16.278,9.188,18.252,9.437,19.917,9.225z M20.55,9.543c-1.905,0.015-3.722,0.118-5.621,0.14c2.637,2.171,5.768,4.581,8.535,6.813
		c0.372,0.301,0.925,0.816,1.265,0.947c0.512,0.197,1.289,0.138,1.896,0.141c1.496,0.008,2.411-0.318,3.407-0.701
		c0.51-0.195,1.036-0.334,1.368-0.703C27.766,13.989,24.154,11.765,20.55,9.543z M14.613,9.928
		c-0.001-0.036-0.045-0.029-0.036,0.036c0.066,3.312-0.021,7.062,0.105,10.433c0.02,0.537-0.101,1.181,0,1.513
		c0.041,0.133,0.39,0.405,0.598,0.596c0.651,0.601,1.281,1.151,1.863,1.722c1.713,1.688,3.219,3.062,4.916,4.637
		c0.725,0.675,1.506,1.343,2.178,2.004c0.074,0.074,0.127,0.258,0.281,0.21c0.041-4.407,0.021-8.875,0.069-13.279
		C21.296,15.141,17.936,12.555,14.613,9.928z M31.509,16.604c-0.889,0.328-1.846,0.879-2.916,1.125
		c-1.069,0.242-2.362,0.14-3.618,0.067c-0.029,4.537-0.096,9.039-0.104,13.597c1.4-0.031,2.783,0.053,4.109-0.281
		c0.47-0.118,0.904-0.381,1.404-0.633c0.4-0.201,1.192-0.476,1.299-0.771c0.119-0.331-0.033-1.061-0.033-1.582
		c0-3.898-0.021-7.831-0.035-11.521C31.6,16.543,31.568,16.609,31.509,16.604z"/>
	<path fill="#B4B3B3" d="M24.589,17.796c-0.048,4.404-0.028,8.871-0.069,13.279c-0.152,0.05-0.207-0.138-0.281-0.212
		c-0.67-0.661-1.454-1.329-2.178-2.002c-1.697-1.575-3.201-2.947-4.918-4.639c-0.582-0.57-1.21-1.119-1.862-1.72
		c-0.207-0.192-0.557-0.463-0.597-0.596c-0.102-0.331,0.021-0.978,0-1.513c-0.126-3.369-0.038-7.121-0.106-10.433
		c-0.009-0.064,0.035-0.072,0.036-0.036C17.936,12.555,21.296,15.141,24.589,17.796z"/>
	<path fill="#CECCCC" d="M31.613,16.604c0.015,3.689,0.035,7.625,0.035,11.521c0,0.521,0.154,1.251,0.035,1.582
		c-0.105,0.297-0.898,0.57-1.301,0.771c-0.499,0.252-0.936,0.515-1.402,0.633c-1.326,0.334-2.709,0.25-4.111,0.281
		c0.011-4.558,0.076-9.06,0.105-13.597c1.254,0.071,2.549,0.177,3.617-0.067c1.071-0.246,2.028-0.797,2.916-1.125
		C31.568,16.609,31.6,16.543,31.613,16.604z M25.748,19.448c-0.059,0.612-0.059,1.461,0,2.073c1.787-0.309,3.502-0.69,5.268-1.021
		c-0.024-0.66,0.166-1.474,0.037-2.002c-0.002-0.021-0.007-0.042-0.037-0.036C29.243,18.773,27.493,19.107,25.748,19.448z
		 M26.52,22.573c0,0.151,0,0.306,0,0.459c1.338-0.269,2.676-0.533,4.006-0.81c-0.035-0.115,0.078-0.382-0.071-0.385
		C29.141,22.08,27.809,22.307,26.52,22.573z M29.611,24.225c0,0.364,0,0.727,0,1.09c0.357-0.086,0.74-0.148,1.125-0.211
		c0-0.326,0-0.656,0-0.983C30.322,24.116,30.004,24.209,29.611,24.225z M29.998,26.475c0,0.28,0,0.561,0,0.842
		c0.193,0.033,0.497-0.104,0.771-0.104c0-0.28,0-0.563,0-0.844C30.534,26.422,30.21,26.393,29.998,26.475z"/>
	<path d="M31.016,18.464c0.03-0.006,0.035,0.015,0.037,0.034c0.131,0.529-0.063,1.342-0.037,2.002
		c-1.766,0.331-3.479,0.712-5.268,1.021c-0.059-0.614-0.059-1.463,0-2.074C27.493,19.107,29.243,18.773,31.016,18.464z
		 M25.818,19.555c0,0.619,0,1.239,0,1.86c1.703-0.324,3.361-0.688,5.094-0.983c-0.001-0.564,0.128-1.369,0-1.826
		C29.178,18.885,27.494,19.214,25.818,19.555z"/>
	<path fill="#EFEFEF" d="M30.912,18.604c0.126,0.457-0.002,1.262,0,1.828c-1.73,0.295-3.393,0.659-5.094,0.983
		c0-0.621,0-1.241,0-1.862C27.494,19.214,29.178,18.885,30.912,18.604z"/>
	<path fill="#154A89" d="M30.453,21.839c0.148,0.003,0.035,0.269,0.07,0.384c-1.328,0.276-2.666,0.543-4.004,0.809
		c0-0.151,0-0.305,0-0.457C27.809,22.307,29.141,22.08,30.453,21.839z"/>
	<path d="M30.734,24.119c0,0.329,0,0.656,0,0.984c-0.383,0.061-0.767,0.125-1.123,0.209c0-0.362,0-0.725,0-1.088
		C30.004,24.209,30.322,24.116,30.734,24.119z M29.717,24.331c0,0.28,0,0.563,0,0.844c0.28-0.069,0.61-0.093,0.876-0.176
		c-0.04-0.238,0.089-0.651-0.069-0.772C30.271,24.275,29.979,24.289,29.717,24.331z"/>
	<path fill="#35A937" d="M30.523,24.225c0.16,0.123,0.029,0.534,0.07,0.775c-0.268,0.082-0.595,0.105-0.877,0.175
		c0-0.282,0-0.563,0-0.843C29.979,24.289,30.271,24.275,30.523,24.225z"/>
	<path d="M30.77,26.366c0,0.282,0,0.563,0,0.846c-0.274-0.001-0.578,0.138-0.771,0.104c0-0.281,0-0.562,0-0.842
		C30.21,26.393,30.534,26.422,30.77,26.366z M30.104,26.58c0.063,0.133,0.051,0.495,0,0.632c0.166-0.046,0.365-0.058,0.525-0.104
		c0-0.198,0-0.398,0-0.599C30.438,26.514,30.248,26.523,30.104,26.58z"/>
	<path fill="#B3B4B3" d="M30.63,26.508c0,0.199,0,0.4,0,0.598c-0.162,0.051-0.358,0.062-0.524,0.105
		c0.051-0.136,0.063-0.498,0-0.633C30.248,26.523,30.438,26.514,30.63,26.508z"/>
	<path fill="#B4B3B3" d="M31.4,16.182c-0.332,0.368-0.858,0.505-1.367,0.701c-0.995,0.385-1.912,0.711-3.407,0.701
		c-0.61-0.003-1.388,0.059-1.896-0.139c-0.342-0.131-0.895-0.648-1.266-0.949c-2.768-2.233-5.898-4.643-8.536-6.813
		c1.899-0.022,3.717-0.124,5.622-0.14C24.154,11.765,27.766,13.989,31.4,16.182z M22.025,10.596
		c-0.437-0.301-0.94-0.758-1.371-0.878c-1.146-0.321-2.5,0.095-3.756,0.07c-0.039,0.013-0.028,0.032,0.033,0.035
		c3.807,0.249,6.225,1.957,8.815,3.337C24.682,12.278,23.216,11.418,22.025,10.596z"/>
	<path fill="#6F7A71" d="M25.748,13.16c-2.592-1.38-5.01-3.087-8.816-3.337c-0.063-0.003-0.074-0.022-0.033-0.035
		c1.258,0.024,2.61-0.392,3.758-0.07c0.431,0.12,0.936,0.577,1.369,0.878C23.216,11.418,24.682,12.278,25.748,13.16z"/>
	<path fill="#E5E5E4" d="M31.297,27.229c0.096-0.053,0.094,0.174,0.107,0.352c0.031,0.521,0.103,1.611,0,1.934
		c-0.092,0.277-0.824,0.603-1.125,0.771c-1.039,0.59-2.104,0.832-3.795,0.879c-0.363,0.011-1.28,0.046-0.702-0.105
		c1.233-0.326,2.353-0.658,3.302-1.195c1.094-0.617,2.004-1.364,2.213-2.563C31.298,27.291,31.292,27.232,31.297,27.229z"/>
	<path fill="#E5E5E4" d="M21.25,27.725c-1.041-0.815-1.747-1.814-2.848-2.635c-0.277-0.206,0.332,0.085,0.457,0.143
		c0.769,0.347,1.598,0.716,2.636,0.598c1.803-0.211,2.173-2.505,2.458-4.182c0.055-0.317,0.089-0.974,0.141-1.439
		c0.055-0.495,0.146,0.637,0.176,0.809c0.082,0.446,0.143,1.437,0.106,1.896c0,0.6,0,1.193,0,1.793
		c-0.021,1.747-0.051,3.128-0.212,4.882c-0.057,0.616,0.016,0.819-0.352,0.49c-0.578-0.517-1.16-1.031-1.686-1.546
		C21.855,28.242,21.545,27.99,21.25,27.725z"/>
</g>
<g>
	<polyline fill="#20CE20" stroke="#025429" stroke-width="0.5" stroke-miterlimit="10" points="13.141,18.677 19.793,18.729 
		19.793,13.74 24.793,20.215 19.793,26.568 19.793,21.918 13.141,21.918 	"/>
	<polyline fill="#ED0606" stroke="#A81916" stroke-width="0.5" stroke-miterlimit="10" points="13.141,21.918 6.536,21.918 
		6.536,26.568 1.645,20.215 6.536,13.6 6.427,18.627 13.141,18.677 	"/>
</g>
</svg>
