<?xml version="1.0" encoding="utf-8"?>
<!-- Generator: Adobe Illustrator 15.0.0, SVG Export Plug-In . SVG Version: 6.00 Build 0)  -->
<!DOCTYPE svg PUBLIC "-//W3C//DTD SVG 1.1//EN" "http://www.w3.org/Graphics/SVG/1.1/DTD/svg11.dtd">
<svg version="1.1" id="Calque_1" xmlns="http://www.w3.org/2000/svg" xmlns:xlink="http://www.w3.org/1999/xlink" x="0px" y="0px"
     width="32px" height="32px" viewBox="0 0 32 32" enable-background="new 0 0 32 32" xml:space="preserve">
<g>
	<path fill="#0F0F0F" d="M15.307,0.623c0.323,0,0.644,0,0.964,0c4.872,2.94,9.752,6.073,14.665,9.02
		c0.174,0.104,0.332,0.153,0.481,0.29c0.144,0.128,0.164,0.301,0.388,0.386c0.111,3.892-0.025,8.033,0.096,11.916
		c0,2.25,0,4.502,0,6.752c-1.926,1.468-4.357,2.427-7.67,2.509c-0.69,0-1.383,0-2.074,0c-0.662-0.058-1.48-1.104-2.12-1.688
		c-3.062-2.787-5.864-5.475-8.875-8.345c-0.543-0.517-1.187-1.049-1.786-1.64c-0.487-0.482-1.607-1.215-1.736-1.688
		c-0.216-0.796,0-2.816,0-3.714c0-3.598-0.101-7.3-0.144-10.854c0-0.835,0-1.671,0-2.508c0.223-0.1,0.309-0.158,0.578-0.193
		C10.31,0.57,13.022,0.913,15.307,0.623z M16.176,1.058c-2.615,0.021-5.111,0.164-7.718,0.193c3.622,2.98,7.92,6.291,11.72,9.357
		c0.512,0.412,1.271,1.121,1.738,1.302c0.697,0.271,1.768,0.188,2.604,0.193c2.057,0.011,3.313-0.438,4.68-0.965
		c0.701-0.27,1.425-0.458,1.882-0.964C26.084,7.164,21.128,4.112,16.176,1.058z M8.023,1.587c-0.002-0.049-0.061-0.038-0.048,0.05
		c0.091,4.547-0.029,9.697,0.144,14.326c0.027,0.738-0.138,1.619,0,2.074c0.056,0.184,0.536,0.557,0.82,0.818
		c0.895,0.826,1.759,1.58,2.556,2.364c2.356,2.317,4.421,4.203,6.752,6.368c0.995,0.924,2.071,1.842,2.991,2.749
		c0.103,0.103,0.177,0.356,0.388,0.289c0.058-6.053,0.03-12.188,0.097-18.233C17.202,8.745,12.585,5.195,8.023,1.587z
		 M31.225,10.753c-1.219,0.451-2.533,1.208-4.004,1.543c-1.468,0.335-3.244,0.193-4.968,0.097
		c-0.041,6.229-0.132,12.41-0.144,18.667c1.927-0.045,3.822,0.071,5.644-0.386c0.646-0.164,1.245-0.524,1.931-0.868
		c0.549-0.279,1.637-0.654,1.784-1.063c0.162-0.453-0.049-1.454-0.049-2.171c0-5.354-0.03-10.754-0.048-15.821
		C31.352,10.671,31.309,10.763,31.225,10.753z"/>
	<path fill="#B4B3B3" d="M21.725,12.393c-0.066,6.044-0.039,12.181-0.098,18.234c-0.211,0.066-0.284-0.188-0.387-0.29
		c-0.92-0.907-1.997-1.823-2.992-2.75c-2.331-2.164-4.396-4.049-6.752-6.366c-0.797-0.787-1.662-1.539-2.556-2.365
		c-0.285-0.263-0.764-0.636-0.82-0.817c-0.138-0.455,0.027-1.338,0-2.074c-0.173-4.63-0.053-9.779-0.144-14.327
		c-0.013-0.088,0.046-0.099,0.048-0.05C12.585,5.195,17.202,8.745,21.725,12.393z"/>
	<path fill="#CECCCC" d="M31.37,10.753c0.019,5.066,0.048,10.47,0.048,15.821c0,0.715,0.212,1.718,0.049,2.171
		c-0.146,0.407-1.234,0.782-1.785,1.062c-0.684,0.346-1.283,0.705-1.93,0.869c-1.818,0.457-3.717,0.342-5.645,0.385
		c0.014-6.256,0.103-12.438,0.145-18.667c1.725,0.097,3.5,0.24,4.969-0.097c1.471-0.336,2.785-1.092,4.004-1.543
		C31.309,10.763,31.352,10.671,31.37,10.753z M23.314,14.661c-0.08,0.84-0.08,2.003,0,2.846c2.455-0.424,4.81-0.946,7.233-1.399
		c-0.034-0.907,0.228-2.022,0.05-2.75c-0.002-0.031-0.008-0.058-0.05-0.049C28.113,13.736,25.711,14.195,23.314,14.661z
		 M24.376,18.952c0,0.209,0,0.42,0,0.628c1.836-0.367,3.674-0.73,5.498-1.11c-0.048-0.157,0.106-0.522-0.097-0.528
		C27.975,18.273,26.146,18.585,24.376,18.952z M28.621,21.221c0,0.497,0,0.996,0,1.494c0.49-0.12,1.016-0.206,1.543-0.29
		c0-0.448,0-0.899,0-1.351C29.598,21.07,29.159,21.195,28.621,21.221z M29.152,24.307c0,0.387,0,0.772,0,1.159
		c0.264,0.045,0.681-0.146,1.061-0.146c0-0.385,0-0.771,0-1.157C29.889,24.238,29.441,24.195,29.152,24.307z"/>
	<path d="M30.549,13.309c0.042-0.009,0.047,0.02,0.051,0.049c0.178,0.727-0.086,1.843-0.051,2.75
		c-2.425,0.453-4.779,0.976-7.234,1.399c-0.078-0.842-0.078-2.005,0-2.846C25.711,14.195,28.113,13.736,30.549,13.309z
		 M23.411,14.806c0,0.853,0,1.703,0,2.555c2.339-0.443,4.616-0.946,6.993-1.351c-0.002-0.777,0.177-1.881,0-2.508
		C28.025,13.888,25.712,14.34,23.411,14.806z"/>
	<path fill="#EFEFEF" d="M30.404,13.502c0.177,0.627-0.002,1.731,0,2.508c-2.377,0.403-4.655,0.906-6.993,1.352
		c0-0.854,0-1.703,0-2.556C25.712,14.34,28.025,13.888,30.404,13.502z"/>
	<path fill="#154A89" d="M29.777,17.939c0.203,0.006,0.049,0.371,0.097,0.529c-1.824,0.379-3.662,0.743-5.498,1.11
		c0-0.208,0-0.419,0-0.628C26.146,18.585,27.975,18.273,29.777,17.939z"/>
	<path d="M30.164,21.075c0,0.45,0,0.899,0,1.352c-0.527,0.082-1.053,0.171-1.543,0.288c0-0.498,0-0.997,0-1.494
		C29.159,21.195,29.598,21.07,30.164,21.075z M28.766,21.364c0,0.388,0,0.771,0,1.157c0.387-0.094,0.838-0.125,1.205-0.238
		c-0.059-0.328,0.121-0.895-0.097-1.063C29.525,21.29,29.125,21.309,28.766,21.364z"/>
	<path fill="#35A937" d="M29.874,21.221c0.22,0.166,0.039,0.733,0.099,1.062c-0.369,0.112-0.818,0.146-1.205,0.241
		c0-0.389,0-0.771,0-1.158C29.125,21.309,29.525,21.29,29.874,21.221z"/>
	<path d="M30.213,24.162c0,0.387,0,0.771,0,1.158c-0.38,0-0.796,0.189-1.061,0.144c0-0.385,0-0.771,0-1.157
		C29.441,24.195,29.889,24.238,30.213,24.162z M29.296,24.452c0.086,0.184,0.072,0.681,0,0.868c0.229-0.063,0.501-0.077,0.724-0.146
		c0-0.272,0-0.546,0-0.819C29.754,24.363,29.494,24.378,29.296,24.452z"/>
	<path fill="#B3B4B3" d="M30.02,24.354c0,0.272,0,0.547,0,0.821c-0.224,0.067-0.494,0.083-0.724,0.146
		c0.072-0.188,0.086-0.686,0-0.869C29.494,24.378,29.754,24.363,30.02,24.354z"/>
	<path fill="#FFFFFF" d="M31.9,28.984c0,0.838,0,1.675,0,2.51c-2.558,0-5.113,0-7.67,0C27.542,31.412,29.975,30.453,31.9,28.984z"/>
	<path fill="#B4B3B3" d="M31.08,10.175c-0.457,0.507-1.182,0.694-1.881,0.964c-1.366,0.528-2.624,0.976-4.68,0.964
		c-0.836-0.003-1.904,0.079-2.604-0.192c-0.467-0.181-1.229-0.891-1.736-1.303c-3.802-3.067-8.1-6.377-11.721-9.357
		c2.607-0.03,5.102-0.172,7.718-0.193C21.128,4.112,26.084,7.164,31.08,10.175z M18.201,2.504c-0.598-0.412-1.29-1.041-1.88-1.206
		c-1.576-0.441-3.436,0.13-5.162,0.098c-0.053,0.018-0.038,0.042,0.047,0.047c5.228,0.343,8.547,2.688,12.106,4.583
		C21.85,4.813,19.838,3.635,18.201,2.504z"/>
	<path fill="#6F7A71" d="M23.314,6.026c-3.562-1.895-6.879-4.24-12.107-4.583c-0.085-0.005-0.1-0.03-0.047-0.047
		c1.728,0.033,3.585-0.538,5.162-0.098c0.59,0.166,1.282,0.794,1.88,1.206C19.838,3.635,21.85,4.813,23.314,6.026z"/>
	<path fill="#E5E5E4" d="M30.936,25.346c0.131-0.072,0.129,0.238,0.146,0.483c0.046,0.714,0.143,2.211,0,2.651
		c-0.124,0.383-1.131,0.828-1.543,1.063c-1.43,0.807-2.893,1.143-5.211,1.206c-0.5,0.015-1.76,0.063-0.965-0.146
		c1.693-0.446,3.229-0.902,4.533-1.641c1.502-0.85,2.752-1.876,3.039-3.521C30.938,25.432,30.93,25.352,30.936,25.346z"/>
	<path fill="#E5E5E4" d="M17.139,26.023c-1.429-1.121-2.398-2.49-3.91-3.616c-0.381-0.284,0.456,0.114,0.628,0.192
		c1.054,0.477,2.193,0.985,3.618,0.82c2.477-0.288,2.983-3.439,3.377-5.74c0.074-0.437,0.123-1.336,0.192-1.977
		c0.074-0.68,0.198,0.876,0.24,1.109c0.112,0.613,0.194,1.971,0.146,2.604c0,0.819,0,1.642,0,2.461
		c-0.027,2.399-0.068,4.296-0.289,6.704c-0.078,0.848,0.02,1.127-0.483,0.676c-0.794-0.71-1.595-1.416-2.314-2.122
		C17.971,26.734,17.544,26.391,17.139,26.023z"/>
</g>
<g>
	<path fill="#FFFFFF" stroke="#000000" stroke-miterlimit="10" d="M9.699,28.311"/>
	<path fill="#E56700" stroke="#000000" stroke-width="0.75" stroke-miterlimit="10" d="M23.273,25.011
		C20.357,28.5,1.111,30.027,0.435,27.926c0.269-3.592,3.271-9.947,6.646-12.208c1.949,0.429,5.612,0.567,8.07-0.269
		C15.071,15.586,20.139,19.941,23.273,25.011z"/>
	<path fill="#4968AD" stroke="#000000" stroke-width="0.5" stroke-miterlimit="10" d="M12.281,16.21
		c-0.051,1.217-0.502,1.569-0.627,1.813c1.215,0.933,0.99,1.021,2.691,2.742c-0.26,0.609-1.366,4.519-2.147,4.327
		C10.469,22,9.492,21.704,8.963,20.309c-0.029-2.101,1.198-2.182,1.031-2.313c-0.167-0.136-0.949-0.511-1.031-1.785"/>
	<path fill="#FCD2A0" stroke="#000000" stroke-width="0.75" stroke-miterlimit="10" d="M15.151,15.449
		c-2.458,0.836-6.122,0.697-8.07,0.269c-0.844-0.596-3.148-2.064-3.076-4.93c0.298-2.101,1.091-4.711,5.424-4.907
		C19.564,6.891,18.691,13.951,15.151,15.449z"/>
	<path fill="none" stroke="#000000" stroke-width="0.5" stroke-miterlimit="10" d="M9.996,17.958
		c0.483,0.511,1.598,0.026,1.598,0.026"/>
	<g>
		<g>
			<path d="M7.575,13.448c0.121,0.351,0.175,0.535,0.516,0.701c0.403,0.196,0.891,0.182,1.329,0.183
				c0.915,0.001,1.82-0.271,2.594-0.745c0.203-0.125,0.138-0.279-0.08-0.299c-0.288-0.022-0.59,0.075-0.832,0.224
				c-0.416,0.255-0.894,0.306-1.377,0.293c-0.592-0.017-0.797-0.158-0.973-0.674C8.644,12.818,7.479,13.166,7.575,13.448
				L7.575,13.448z"/>
		</g>
	</g>
	<g>
		<g>
			<path d="M7.869,9.625c-0.024,0.219-0.006,0.429,0.043,0.644c0.156,0.684,1.807,0.255,1.648-0.443
				C9.531,9.694,9.515,9.6,9.531,9.465C9.614,8.691,7.941,8.962,7.869,9.625L7.869,9.625z"/>
		</g>
	</g>
	<g>
		<g>
			<path d="M11.006,10.068c0.003,0.01,0.006,0.019,0.01,0.028c0.309,0.633,2.032,0.076,1.765-0.473
				c-0.098-0.202-0.19-0.307-0.376-0.434C11.906,8.851,10.279,9.573,11.006,10.068L11.006,10.068z"/>
		</g>
	</g>
	<path fill="none" stroke="#000000" stroke-width="0.5" stroke-miterlimit="10" d="M19.113,15.819"/>
</g>
<path fill="#FFFFFF" stroke="#000000" stroke-miterlimit="10" d="M9.959,23.141"/>
<path fill="none" stroke="#000000" stroke-width="0.5" stroke-miterlimit="10" d="M19.373,10.649"/>
<line fill="none" stroke="#A81916" stroke-width="0.75" stroke-miterlimit="10" x1="28.768" y1="25.756" x2="28.768" y2="22.006"/>
<polyline fill="#ED0606" stroke="#A81916" stroke-width="0.75" stroke-miterlimit="10" points="28.564,25.393 15.605,25.393 
	15.605,29.695 6.008,23.818 15.605,17.695 15.391,22.348 28.564,22.395 "/>
</svg>
