<?xml version="1.0" encoding="utf-8"?>
<!-- Generator: Adobe Illustrator 16.0.0, SVG Export Plug-In . SVG Version: 6.00 Build 0)  -->
<!DOCTYPE svg PUBLIC "-//W3C//DTD SVG 1.1//EN" "http://www.w3.org/Graphics/SVG/1.1/DTD/svg11.dtd">
<svg version="1.1" id="Calque_1" xmlns="http://www.w3.org/2000/svg" xmlns:xlink="http://www.w3.org/1999/xlink" x="0px" y="0px"
	 width="32px" height="32px" viewBox="0 0 32 32" enable-background="new 0 0 32 32" xml:space="preserve">
<path fill="#FFFFFF" stroke="#000000" stroke-miterlimit="10" d="M8.874,25"/>
<g>
	<path fill="#FFFFFF" stroke="#000000" stroke-miterlimit="10" d="M8.536,20.137"/>
	<path fill="#FACEAF" stroke="#7E7F7F" stroke-width="0.5" stroke-miterlimit="10" d="M20.48,17.23
		c-2.563,3.071-19.5,4.416-20.099,2.564c0.236-3.159,2.879-8.754,5.849-10.743c1.715,0.377,4.939,0.5,7.104-0.236
		C13.263,8.939,17.723,12.771,20.48,17.23z"/>
	<path fill="#86A3D1" stroke="#6F5F5C" stroke-width="0.5" stroke-miterlimit="10" d="M10.808,9.488
		c-0.045,1.07-0.441,1.382-0.553,1.595c1.069,0.821,0.873,0.897,2.371,2.414c-0.23,0.537-1.203,3.976-1.892,3.81
		c-1.522-2.721-2.381-2.979-2.849-4.21c-0.024-1.847,1.056-1.918,0.908-2.037c-0.146-0.116-0.834-0.447-0.908-1.569"/>
	<path fill="#FDE8D0" stroke="#7E7F7F" stroke-width="0.5" stroke-miterlimit="10" d="M13.333,8.818
		C11.171,9.553,7.945,9.432,6.23,9.055C5.488,8.53,3.461,7.238,3.523,4.716c0.265-1.848,0.961-4.145,4.774-4.318
		C17.218,1.286,16.446,7.5,13.333,8.818z"/>
	<path fill="none" stroke="#6F5F5C" stroke-width="0.5" stroke-miterlimit="10" d="M8.876,11.027
		c0.426,0.447,1.406,0.023,1.406,0.023"/>
	<g>
		<g>
			<path fill="#817568" d="M6.778,6.91C6.9,7.264,6.951,7.443,7.294,7.61c0.389,0.188,0.864,0.174,1.285,0.174
				c0.879,0.001,1.745-0.255,2.488-0.711c0.167-0.102,0.114-0.23-0.064-0.245c-0.236-0.02-0.483,0.061-0.684,0.183
				C9.85,7.299,9.314,7.365,8.77,7.35c-0.616-0.016-0.841-0.164-1.024-0.7C7.656,6.394,6.7,6.68,6.778,6.91L6.778,6.91z"/>
		</g>
	</g>
	<g>
		<g>
			<path fill="#817568" d="M7.054,3.531C7.036,3.755,7.05,3.952,7.097,4.173C7.227,4.774,8.679,4.4,8.546,3.784
				c-0.041-0.128-0.051-0.26-0.033-0.395C8.569,2.704,7.103,2.949,7.054,3.531L7.054,3.531z"/>
		</g>
	</g>
	<g>
		<g>
			<path fill="#817568" d="M9.8,3.994c0.012,0.019,0.022,0.038,0.035,0.057c0.252,0.52,1.668,0.064,1.448-0.388
				c-0.088-0.18-0.171-0.276-0.336-0.389C10.538,2.995,9.204,3.588,9.8,3.994L9.8,3.994z"/>
		</g>
	</g>
	<path fill="none" stroke="#000000" stroke-width="0.5" stroke-miterlimit="10" d="M16.818,9.145"/>
	<path fill="none" stroke="#000000" stroke-width="0.5" stroke-miterlimit="10" d="M13.22,13.979"/>
</g>
<g>
	<path fill="#FFFFFF" stroke="#000000" stroke-miterlimit="10" d="M24.316,12.592"/>
	<path fill="#0F0F0F" d="M19.917,9.119c0.233,0,0.467,0,0.702,0c3.548,2.141,7.102,4.423,10.678,6.568
		c0.127,0.076,0.241,0.113,0.352,0.212c0.104,0.093,0.117,0.22,0.279,0.28c0.082,2.834-0.018,5.852,0.072,8.68
		c0,1.637,0,3.276,0,4.916c-1.404,1.067-3.176,1.767-5.587,1.826c-0.504,0-1.007,0-1.511,0c-0.482-0.041-1.078-0.804-1.543-1.229
		c-2.229-2.03-4.271-3.987-6.463-6.079c-0.396-0.375-0.867-0.762-1.302-1.191c-0.355-0.352-1.17-0.885-1.264-1.229
		c-0.156-0.578,0-2.054,0-2.706c0-2.62-0.072-5.315-0.105-7.903c0-0.609,0-1.217,0-1.826c0.165-0.071,0.229-0.113,0.424-0.139
		C16.278,9.082,18.252,9.331,19.917,9.119z M20.55,9.438c-1.905,0.015-3.722,0.117-5.621,0.14c2.637,2.171,5.768,4.581,8.535,6.813
		c0.372,0.3,0.925,0.816,1.265,0.947c0.512,0.198,1.289,0.139,1.896,0.141c1.496,0.008,2.411-0.317,3.407-0.701
		c0.51-0.195,1.036-0.333,1.368-0.702C27.766,13.883,24.154,11.66,20.55,9.438z M14.613,9.822c-0.001-0.035-0.045-0.028-0.036,0.036
		c0.066,3.312-0.021,7.062,0.105,10.433c0.02,0.537-0.101,1.18,0,1.512c0.041,0.133,0.39,0.405,0.598,0.596
		c0.651,0.602,1.281,1.151,1.863,1.723c1.713,1.688,3.219,3.061,4.916,4.636c0.725,0.675,1.506,1.343,2.178,2.004
		c0.074,0.074,0.127,0.259,0.281,0.21c0.041-4.406,0.021-8.875,0.069-13.279C21.296,15.035,17.936,12.449,14.613,9.822z
		 M31.509,16.498c-0.889,0.328-1.846,0.879-2.916,1.125c-1.069,0.242-2.362,0.139-3.618,0.066
		c-0.029,4.537-0.096,9.039-0.104,13.598c1.4-0.032,2.783,0.053,4.109-0.281c0.47-0.119,0.904-0.381,1.404-0.633
		c0.4-0.202,1.192-0.477,1.299-0.771c0.119-0.332-0.033-1.061-0.033-1.582c0-3.898-0.021-7.832-0.035-11.521
		C31.6,16.438,31.568,16.504,31.509,16.498z"/>
	<path fill="#B4B3B3" d="M24.589,17.689c-0.048,4.404-0.028,8.871-0.069,13.279c-0.152,0.051-0.207-0.138-0.281-0.212
		c-0.67-0.661-1.454-1.329-2.178-2.002c-1.697-1.575-3.201-2.946-4.918-4.638c-0.582-0.57-1.21-1.119-1.862-1.721
		c-0.207-0.191-0.557-0.463-0.597-0.596c-0.102-0.33,0.021-0.977,0-1.512c-0.126-3.369-0.038-7.121-0.106-10.433
		c-0.009-0.064,0.035-0.071,0.036-0.036C17.936,12.449,21.296,15.035,24.589,17.689z"/>
	<path fill="#CECCCC" d="M31.613,16.498c0.015,3.689,0.035,7.624,0.035,11.521c0,0.521,0.154,1.25,0.035,1.582
		c-0.105,0.297-0.898,0.569-1.301,0.771c-0.499,0.251-0.936,0.514-1.402,0.633c-1.326,0.334-2.709,0.249-4.111,0.281
		c0.011-4.559,0.076-9.061,0.105-13.598c1.254,0.071,2.549,0.178,3.617-0.066c1.071-0.246,2.028-0.797,2.916-1.125
		C31.568,16.504,31.6,16.438,31.613,16.498z M25.748,19.343c-0.059,0.612-0.059,1.462,0,2.073c1.787-0.309,3.502-0.689,5.268-1.02
		c-0.024-0.66,0.166-1.475,0.037-2.002c-0.002-0.021-0.007-0.043-0.037-0.037C29.243,18.669,27.493,19.003,25.748,19.343z
		 M26.52,22.468c0,0.152,0,0.306,0,0.459c1.338-0.268,2.676-0.532,4.006-0.809c-0.035-0.116,0.078-0.382-0.071-0.386
		C29.141,21.975,27.809,22.201,26.52,22.468z M29.611,24.118c0,0.364,0,0.728,0,1.09c0.357-0.086,0.74-0.147,1.125-0.21
		c0-0.327,0-0.657,0-0.984C30.322,24.011,30.004,24.104,29.611,24.118z M29.998,26.368c0,0.28,0,0.562,0,0.842
		c0.193,0.034,0.497-0.104,0.771-0.104c0-0.28,0-0.563,0-0.844C30.534,26.316,30.21,26.287,29.998,26.368z"/>
	<path d="M31.016,18.357c0.03-0.006,0.035,0.016,0.037,0.035c0.131,0.529-0.063,1.342-0.037,2.002
		c-1.766,0.33-3.479,0.711-5.268,1.021c-0.059-0.614-0.059-1.462,0-2.074C27.493,19.003,29.243,18.669,31.016,18.357z
		 M25.818,19.448c0,0.62,0,1.239,0,1.86c1.703-0.324,3.361-0.688,5.094-0.983c-0.001-0.564,0.128-1.368,0-1.826
		C29.178,18.779,27.494,19.107,25.818,19.448z"/>
	<path fill="#EFEFEF" d="M30.912,18.498c0.126,0.457-0.002,1.261,0,1.827c-1.73,0.295-3.393,0.659-5.094,0.983
		c0-0.621,0-1.24,0-1.861C27.494,19.107,29.178,18.779,30.912,18.498z"/>
	<path fill="#154A89" d="M30.453,21.732c0.148,0.004,0.035,0.27,0.07,0.384c-1.328,0.276-2.666,0.543-4.004,0.809
		c0-0.151,0-0.305,0-0.457C27.809,22.201,29.141,21.975,30.453,21.732z"/>
	<path d="M30.734,24.014c0,0.329,0,0.657,0,0.984c-0.383,0.061-0.767,0.125-1.123,0.21c0-0.362,0-0.726,0-1.088
		C30.004,24.104,30.322,24.011,30.734,24.014z M29.717,24.227c0,0.28,0,0.563,0,0.844c0.28-0.069,0.61-0.094,0.876-0.176
		c-0.04-0.238,0.089-0.651-0.069-0.773C30.271,24.171,29.979,24.184,29.717,24.227z"/>
	<path fill="#35A937" d="M30.523,24.118c0.16,0.124,0.029,0.534,0.07,0.776C30.327,24.977,30,25,29.718,25.068
		c0-0.282,0-0.563,0-0.842C29.979,24.184,30.271,24.171,30.523,24.118z"/>
	<path d="M30.77,26.261c0,0.283,0,0.563,0,0.847c-0.274-0.002-0.578,0.138-0.771,0.104c0-0.281,0-0.561,0-0.842
		C30.21,26.287,30.534,26.316,30.77,26.261z M30.104,26.475c0.063,0.133,0.051,0.496,0,0.633c0.166-0.047,0.365-0.058,0.525-0.104
		c0-0.198,0-0.399,0-0.599C30.438,26.408,30.248,26.419,30.104,26.475z"/>
	<path fill="#B3B4B3" d="M30.63,26.402c0,0.199,0,0.399,0,0.598c-0.162,0.05-0.358,0.061-0.524,0.105
		c0.051-0.137,0.063-0.498,0-0.633C30.248,26.419,30.438,26.408,30.63,26.402z"/>
	<path fill="#B4B3B3" d="M31.4,16.076c-0.332,0.368-0.858,0.505-1.367,0.701c-0.995,0.385-1.912,0.711-3.407,0.701
		c-0.61-0.004-1.388,0.058-1.896-0.14c-0.342-0.131-0.895-0.647-1.266-0.949c-2.768-2.233-5.898-4.643-8.536-6.813
		c1.899-0.022,3.717-0.124,5.622-0.14C24.154,11.66,27.766,13.883,31.4,16.076z M22.025,10.49c-0.437-0.301-0.94-0.758-1.371-0.878
		c-1.146-0.321-2.5,0.095-3.756,0.07c-0.039,0.013-0.028,0.032,0.033,0.035c3.807,0.249,6.225,1.957,8.815,3.337
		C24.682,12.172,23.216,11.313,22.025,10.49z"/>
	<path fill="#6F7A71" d="M25.748,13.055c-2.592-1.38-5.01-3.087-8.816-3.337c-0.063-0.003-0.074-0.022-0.033-0.035
		c1.258,0.024,2.61-0.392,3.758-0.07c0.431,0.12,0.936,0.577,1.369,0.878C23.216,11.313,24.682,12.172,25.748,13.055z"/>
	<path fill="#E5E5E4" d="M31.297,27.124c0.096-0.054,0.094,0.173,0.107,0.351c0.031,0.522,0.103,1.612,0,1.935
		c-0.092,0.276-0.824,0.602-1.125,0.771c-1.039,0.59-2.104,0.832-3.795,0.879c-0.363,0.012-1.28,0.047-0.702-0.104
		c1.233-0.326,2.353-0.658,3.302-1.196c1.094-0.617,2.004-1.363,2.213-2.563C31.298,27.186,31.292,27.127,31.297,27.124z"/>
	<path fill="#E5E5E4" d="M21.25,27.618c-1.041-0.815-1.747-1.813-2.848-2.634c-0.277-0.207,0.332,0.084,0.457,0.143
		c0.769,0.346,1.598,0.715,2.636,0.598c1.803-0.211,2.173-2.506,2.458-4.182c0.055-0.318,0.089-0.975,0.141-1.439
		c0.055-0.496,0.146,0.637,0.176,0.809c0.082,0.445,0.143,1.436,0.106,1.896c0,0.599,0,1.192,0,1.793
		c-0.021,1.746-0.051,3.127-0.212,4.881c-0.057,0.617,0.016,0.819-0.352,0.49c-0.578-0.516-1.16-1.031-1.686-1.546
		C21.855,28.137,21.545,27.885,21.25,27.618z"/>
</g>
<polyline fill="#E41917" stroke="#A81916" stroke-width="0.5" stroke-miterlimit="10" points="23.85,21.77 12.79,21.77 
	12.79,26.848 4.603,19.91 12.79,12.684 12.606,18.176 23.85,18.23 "/>
</svg>
