<?xml version="1.0" encoding="utf-8"?>
<!-- Generator: Adobe Illustrator 16.0.0, SVG Export Plug-In . SVG Version: 6.00 Build 0)  -->
<!DOCTYPE svg PUBLIC "-//W3C//DTD SVG 1.1//EN" "http://www.w3.org/Graphics/SVG/1.1/DTD/svg11.dtd">
<svg version="1.1" id="Calque_1" xmlns="http://www.w3.org/2000/svg" xmlns:xlink="http://www.w3.org/1999/xlink" x="0px" y="0px"
	 width="32px" height="32px" viewBox="0 0 32 32" enable-background="new 0 0 32 32" xml:space="preserve">
<g>
	<path fill="#4860A8" stroke="#000000" stroke-width="0.5" stroke-miterlimit="10" d="M31.292,17.396
		c-2.563,3.063-19.456,4.403-20.049,2.559c0.234-3.152,2.871-8.729,5.833-10.716c1.712,0.377,4.926,0.496,7.085-0.236
		C24.091,9.124,28.538,12.946,31.292,17.396z"/>
	<path fill="#F25600" stroke="#000000" stroke-width="0.5" stroke-miterlimit="10" d="M21.643,9.671
		c-0.045,1.068-0.441,1.377-0.552,1.59c1.066,0.819,0.869,0.898,2.363,2.408c-0.229,0.537-1.202,3.966-1.888,3.802
		c-1.518-2.718-2.375-2.977-2.84-4.202c-0.023-1.844,1.055-1.914,0.906-2.031c-0.146-0.116-0.834-0.448-0.906-1.565"/>
	<path fill="#FCD2A0" stroke="#000000" stroke-width="0.5" stroke-miterlimit="10" d="M24.161,9.002
		c-2.158,0.733-5.375,0.612-7.084,0.237c-0.741-0.524-2.764-1.813-2.7-4.328c0.263-1.845,0.957-4.136,4.764-4.308
		C28.034,1.49,27.27,7.688,24.161,9.002z"/>
	<path fill="none" stroke="#000000" stroke-width="0.5" stroke-miterlimit="10" d="M19.634,11.236
		c0.427,0.56,1.404,0.029,1.404,0.029"/>
	<g>
		<g>
			<path d="M17.654,7.09c0.121,0.354,0.171,0.53,0.513,0.696c0.383,0.185,0.853,0.17,1.269,0.172
				c0.86,0.001,1.709-0.249,2.438-0.696c0.153-0.095,0.104-0.214-0.062-0.228c-0.219-0.018-0.446,0.057-0.633,0.17
				c-0.482,0.297-1.033,0.365-1.593,0.351c-0.62-0.016-0.851-0.163-1.036-0.704C18.473,6.61,17.583,6.876,17.654,7.09L17.654,7.09z"
				/>
		</g>
	</g>
	<g>
		<g>
			<path d="M17.979,3.721c-0.026,0.213-0.008,0.417,0.041,0.625c0.125,0.531,1.408,0.197,1.281-0.343
				c-0.033-0.142-0.052-0.263-0.033-0.408C19.346,3,18.044,3.206,17.979,3.721L17.979,3.721z"/>
		</g>
	</g>
	<g>
		<g>
			<path d="M20.701,4.15c0.021,0.021,0.041,0.045,0.052,0.074c0.207,0.463,1.468,0.069,1.281-0.344
				c-0.076-0.169-0.16-0.268-0.32-0.368C21.346,3.279,20.167,3.813,20.701,4.15L20.701,4.15z"/>
		</g>
	</g>
</g>
<path fill="#FFFFFF" stroke="#000000" stroke-miterlimit="10" d="M21.268,22.923"/>
<path fill="#FFFFFF" stroke="#000000" stroke-miterlimit="10" d="M11.775,31.081"/>
<g>
	<path fill="#FFFFFF" stroke="#000000" stroke-miterlimit="10" d="M8.158,20.294"/>
	<path fill="#E56700" stroke="#000000" stroke-width="0.5" stroke-miterlimit="10" d="M12.943,9.003
		C10.787,9.736,7.571,9.616,5.859,9.24c-2.322,1.556-4.437,5.315-5.359,8.388c0,0.905,0,1.781,0,2.72
		c2.827,1.219,17.227-0.141,19.575-2.951C17.32,12.947,12.873,9.125,12.943,9.003z"/>
	<path fill="#4968AD" stroke="#000000" stroke-width="0.5" stroke-miterlimit="10" d="M10.424,9.672
		c-0.044,1.068-0.441,1.377-0.551,1.59c1.066,0.819,0.87,0.898,2.363,2.408c-0.229,0.537-1.2,3.965-1.886,3.801
		c-1.518-2.717-2.376-2.976-2.84-4.202c-0.024-1.843,1.053-1.913,0.906-2.031C8.269,11.122,7.583,10.79,7.51,9.673"/>
	<path fill="#FCD2A0" stroke="#000000" stroke-width="0.5" stroke-miterlimit="10" d="M12.943,9.003
		C10.786,9.736,7.569,9.616,5.859,9.24c-0.741-0.524-2.763-1.813-2.7-4.328C3.421,3.067,4.116,0.776,7.92,0.604
		C16.816,1.491,16.052,7.689,12.943,9.003z"/>
	<path fill="none" stroke="#000000" stroke-width="0.5" stroke-miterlimit="10" d="M8.418,11.207
		c0.425,0.448,1.403,0.023,1.403,0.023"/>
	<g>
		<g>
			<path d="M6.439,7.091c0.122,0.354,0.169,0.53,0.511,0.696c0.382,0.185,0.852,0.17,1.267,0.172
				c0.862,0.001,1.71-0.249,2.441-0.696c0.153-0.095,0.104-0.214-0.061-0.228c-0.219-0.018-0.448,0.057-0.633,0.17
				C9.48,7.502,8.931,7.571,8.371,7.556C7.75,7.54,7.521,7.392,7.335,6.852C7.254,6.612,6.366,6.877,6.439,7.091L6.439,7.091z"/>
		</g>
	</g>
	<g>
		<g>
			<path d="M6.763,3.722C6.735,3.936,6.756,4.14,6.804,4.348c0.125,0.531,1.407,0.196,1.28-0.343
				c-0.033-0.142-0.05-0.263-0.032-0.408C8.127,3,6.827,3.207,6.763,3.722L6.763,3.722z"/>
		</g>
	</g>
	<g>
		<g>
			<path d="M9.571,4.039c0.244,0,1.45-0.483,0.841-0.483C10.167,3.556,8.962,4.039,9.571,4.039L9.571,4.039z"/>
		</g>
	</g>
	<g>
		<g>
			<path d="M9.484,4.152c0.023,0.02,0.041,0.045,0.051,0.075c0.208,0.463,1.466,0.069,1.281-0.343
				c-0.076-0.169-0.16-0.269-0.319-0.368C10.128,3.28,8.95,3.813,9.484,4.152L9.484,4.152z"/>
		</g>
	</g>
	<path fill="none" stroke="#000000" stroke-width="0.5" stroke-miterlimit="10" d="M16.422,9.329"/>
	<path fill="none" stroke="#000000" stroke-width="0.5" stroke-miterlimit="10" d="M20.039,20.116"/>
</g>
<path fill="#FFFFFF" stroke="#000000" stroke-miterlimit="10" d="M50.544,9.003"/>
<g>
	<rect x="11.008" y="30.732" fill="#FFFFFF" width="9.98" height="0.922"/>
	<rect x="12.211" y="29.962" fill="#FFFFFF" width="7.577" height="0.671"/>
	<line fill="none" stroke="#C2C1C0" stroke-width="0.5" stroke-miterlimit="10" x1="11.125" y1="30.633" x2="20.876" y2="30.643"/>
	<path fill="none" stroke="#888B86" stroke-width="0.75" stroke-miterlimit="10" d="M19.132,28.761
		c-0.028,0.908,0.201,1.363,0.757,1.4c0.44,0.067,1.258-0.284,1.186,1.594c-10.147,0,0,0-10.147,0
		c0.002-0.473-0.104-1.69,1.091-1.58c0.911,0.023,0.88-0.593,0.892-1.414C13.555,28.059,19.132,28.761,19.132,28.761z"/>
	<path fill="#EEEEEC" stroke="#FFFFFF" stroke-miterlimit="10" d="M7.381,15.788C7.36,14.835,8.01,14.412,8.57,14.435
		c14.801,0,0,0,14.801,0c0.664,0,1.305,0.576,1.244,1.353c0.004,11.933,0,0,0.004,11.933c-0.004,0.553-0.094,0.752-0.604,0.729
		c-16.086,0.004,0,0-16.086,0.004c-0.5-0.063-0.53-0.133-0.551-0.578C7.381,15.788,7.381,15.788,7.381,15.788z"/>
	
		<rect x="8.56" y="16.066" fill="#8CB9DD" stroke="#164A89" stroke-width="0.75" stroke-miterlimit="10" width="14.879" height="10.729"/>
	<path fill="none" stroke="#888B86" stroke-width="0.75" stroke-miterlimit="10" d="M6.967,15.507
		c-0.021-0.997,0.66-1.44,1.248-1.415c15.508-0.001,0,0,15.508-0.001c0.695,0.001,1.367,0.604,1.303,1.416
		c0.007,12.487,0,0,0.007,12.487c-0.007,0.576-0.099,0.788-0.634,0.763c-16.854,0.004,0,0-16.854,0.004
		c-0.524-0.063-0.558-0.138-0.578-0.604C6.967,15.507,6.967,15.507,6.967,15.507z"/>
</g>
<g>
	<polyline fill="#20CE20" stroke="#025429" stroke-width="0.75" stroke-miterlimit="10" points="15.896,19.706 24.617,19.754 
		24.617,15.138 31.168,21.128 24.617,27.007 24.617,22.703 15.896,22.703 	"/>
	<polyline fill="#ED0606" stroke="#A81916" stroke-width="0.75" stroke-miterlimit="10" points="15.896,22.703 7.241,22.703 
		7.241,27.007 0.833,21.128 7.241,15.007 7.1,19.658 15.896,19.706 	"/>
</g>
</svg>
