<?xml version="1.0" encoding="utf-8"?>
<!-- Generator: Adobe Illustrator 16.0.0, SVG Export Plug-In . SVG Version: 6.00 Build 0)  -->
<!DOCTYPE svg PUBLIC "-//W3C//DTD SVG 1.1//EN" "http://www.w3.org/Graphics/SVG/1.1/DTD/svg11.dtd">
<svg version="1.1" id="Calque_1" xmlns="http://www.w3.org/2000/svg" xmlns:xlink="http://www.w3.org/1999/xlink" x="0px" y="0px"
	 width="32px" height="32px" viewBox="0 0 32 32" enable-background="new 0 0 32 32" xml:space="preserve">
<g>
	<path fill="#4860A8" stroke="#000000" stroke-width="0.5" stroke-miterlimit="10" d="M27.48,13.181
		c-2.463,0.835-6.127,0.699-8.08,0.27c-3.376,2.265-6.383,8.625-6.65,12.219c0.522,1.627,12.146,1.082,18.75-0.863
		c0-2.465,0-5.051,0-7.429C29.313,14.936,27.432,13.266,27.48,13.181z"/>
	<path fill="#F25600" stroke="#000000" stroke-width="0.5" stroke-miterlimit="10" d="M24.607,13.943
		c-0.051,1.218-0.504,1.57-0.629,1.813c1.217,0.934,0.992,1.023,2.694,2.747c-0.263,0.612-1.37,4.521-2.151,4.335
		c-1.729-3.1-2.707-3.395-3.237-4.792c-0.027-2.102,1.2-2.183,1.034-2.316c-0.17-0.133-0.952-0.511-1.034-1.785"/>
	<path fill="#FCD2A0" stroke="#000000" stroke-width="0.5" stroke-miterlimit="10" d="M27.48,13.18
		c-2.463,0.837-6.129,0.699-8.078,0.271c-0.846-0.598-3.151-2.068-3.08-4.936c0.299-2.103,1.091-4.715,5.43-4.912
		C31.896,4.615,31.023,11.683,27.48,13.18z"/>
	<path fill="none" stroke="#000000" stroke-width="0.5" stroke-miterlimit="10" d="M22.318,15.728
		c0.484,0.638,1.601,0.033,1.601,0.033"/>
	<g>
		<g>
			<path d="M20.063,11c0.139,0.404,0.192,0.605,0.584,0.794c0.436,0.21,0.971,0.194,1.443,0.196c0.982,0.001,1.95-0.284,2.782-0.794
				c0.177-0.108,0.12-0.244-0.069-0.26c-0.248-0.02-0.51,0.065-0.721,0.194c-0.551,0.338-1.18,0.416-1.816,0.399
				c-0.707-0.018-0.971-0.186-1.182-0.803C20.992,10.453,19.979,10.756,20.063,11L20.063,11z"/>
		</g>
	</g>
	<g>
		<g>
			<path d="M20.432,7.158c-0.031,0.243-0.009,0.476,0.047,0.713c0.144,0.605,1.605,0.225,1.461-0.391
				C21.9,7.318,21.88,7.18,21.9,7.014C21.988,6.336,20.505,6.571,20.432,7.158L20.432,7.158z"/>
		</g>
	</g>
	<g>
		<g>
			<path d="M23.535,7.648c0.025,0.023,0.047,0.051,0.059,0.085c0.236,0.527,1.674,0.079,1.463-0.392
				c-0.089-0.193-0.185-0.305-0.367-0.42C24.27,6.654,22.926,7.263,23.535,7.648L23.535,7.648z"/>
		</g>
	</g>
</g>
<path fill="#FFFFFF" stroke="#000000" stroke-miterlimit="10" d="M24.182,29.055"/>
<g>
	<path fill="#FFFFFF" stroke="#000000" stroke-miterlimit="10" d="M9.232,26.057"/>
	<path fill="#E56700" stroke="#000000" stroke-width="0.5" stroke-miterlimit="10" d="M14.688,13.181
		c-2.458,0.836-6.125,0.699-8.077,0.271c-2.648,1.773-5.06,6.062-6.111,9.563c0,1.031,0,2.03,0,3.102
		c3.224,1.39,19.643-0.16,22.32-3.365C19.682,17.68,14.609,13.32,14.688,13.181z"/>
	<path fill="#4968AD" stroke="#000000" stroke-width="0.5" stroke-miterlimit="10" d="M11.816,13.944
		c-0.05,1.218-0.502,1.57-0.628,1.813c1.216,0.935,0.993,1.024,2.694,2.746c-0.261,0.612-1.368,4.521-2.15,4.334
		c-1.731-3.099-2.709-3.394-3.239-4.791c-0.028-2.102,1.201-2.182,1.033-2.316c-0.167-0.132-0.95-0.51-1.033-1.785"/>
	<path fill="#FCD2A0" stroke="#000000" stroke-width="0.5" stroke-miterlimit="10" d="M14.688,13.181
		c-2.459,0.836-6.128,0.699-8.077,0.271c-0.845-0.598-3.151-2.068-3.079-4.936C3.831,6.413,4.623,3.8,8.96,3.604
		C19.105,4.616,18.232,11.683,14.688,13.181z"/>
	<path fill="none" stroke="#000000" stroke-width="0.5" stroke-miterlimit="10" d="M9.528,15.694c0.485,0.511,1.6,0.026,1.6,0.026"
		/>
	<g>
		<g>
			<path d="M7.272,11.001c0.14,0.403,0.193,0.604,0.583,0.794c0.436,0.211,0.971,0.194,1.444,0.196
				c0.983,0.001,1.95-0.284,2.784-0.793c0.174-0.108,0.119-0.245-0.069-0.26c-0.25-0.021-0.511,0.064-0.722,0.194
				c-0.552,0.338-1.178,0.417-1.816,0.4c-0.708-0.019-0.969-0.188-1.181-0.803C8.201,10.455,7.189,10.757,7.272,11.001L7.272,11.001
				z"/>
		</g>
	</g>
	<g>
		<g>
			<path d="M7.642,7.16C7.609,7.403,7.633,7.636,7.688,7.873c0.143,0.605,1.604,0.224,1.459-0.391
				C9.11,7.32,9.091,7.183,9.111,7.018C9.197,6.336,7.715,6.572,7.642,7.16L7.642,7.16z"/>
		</g>
	</g>
	<g>
		<g>
			<path d="M10.843,7.521c0.279,0,1.654-0.55,0.959-0.55C11.523,6.971,10.149,7.521,10.843,7.521L10.843,7.521z"/>
		</g>
	</g>
	<g>
		<g>
			<path d="M10.744,7.649c0.026,0.023,0.047,0.052,0.059,0.086c0.237,0.528,1.671,0.079,1.46-0.392
				c-0.086-0.192-0.182-0.306-0.363-0.419C11.479,6.656,10.135,7.263,10.744,7.649L10.744,7.649z"/>
		</g>
	</g>
	<path fill="none" stroke="#000000" stroke-width="0.5" stroke-miterlimit="10" d="M18.654,13.553"/>
	<path fill="none" stroke="#000000" stroke-width="0.5" stroke-miterlimit="10" d="M22.779,25.854"/>
</g>
</svg>
